<svg version="1.1" xmlns="http://www.w3.org/2000/svg" viewBox="0 0 766.1088005500188 725.6668090820312" width="766.1088005500188" height="725.6668090820312">
  <!-- svg-source:excalidraw -->
  
  <defs>
    <style class="style-fonts">
      @font-face {
        font-family: "Virgil";
        src: url("https://unpkg.com/@excalidraw/excalidraw@0.14.2/dist/excalidraw-assets/Virgil.woff2");
      }
      @font-face {
        font-family: "Cascadia";
        src: url("https://unpkg.com/@excalidraw/excalidraw@0.14.2/dist/excalidraw-assets/Cascadia.woff2");
      }
    </style>
  </defs>
  <rect x="0" y="0" width="766.1088005500188" height="725.6668090820312" fill="#ffffff"></rect><g transform="translate(136.10870899728445 196.66673278808594) rotate(0 45.5 10)"><text x="0" y="14" font-family="Virgil, Segoe UI Emoji" font-size="16px" fill="#000000" text-anchor="start" style="white-space: pre;" direction="ltr">prev_frame</text></g><g transform="translate(136.10870899728445 231.66673278808594) rotate(0 42 10)"><text x="0" y="14" font-family="Virgil, Segoe UI Emoji" font-size="16px" fill="#000000" text-anchor="start" style="white-space: pre;" direction="ltr">func_inst </text></g><g transform="translate(136.10870899728445 266.66673278808594) rotate(0 6.5 10)"><text x="0" y="14" font-family="Virgil, Segoe UI Emoji" font-size="16px" fill="#000000" text-anchor="start" style="white-space: pre;" direction="ltr">ip</text></g><g transform="translate(132.44205250314383 301.3334197998047) rotate(0 80 10)"><text x="0" y="14" font-family="Virgil, Segoe UI Emoji" font-size="16px" fill="#000000" text-anchor="start" style="white-space: pre;" direction="ltr">opnd_stack_bottom</text></g><g transform="translate(136.10870899728445 336.66673278808594) rotate(0 137.5 10)"><text x="0" y="14" font-family="Virgil, Segoe UI Emoji" font-size="16px" fill="#000000" text-anchor="start" style="white-space: pre;" direction="ltr">opnd_sp (point to opnd stack top)</text></g><g transform="translate(136.10870899728445 371.66673278808594) rotate(0 81.5 10)"><text x="0" y="14" font-family="Virgil, Segoe UI Emoji" font-size="16px" fill="#000000" text-anchor="start" style="white-space: pre;" direction="ltr">label_stack_bottom</text></g><g transform="translate(136.10870899728445 406.66673278808594) rotate(0 140 10)"><text x="0" y="14" font-family="Virgil, Segoe UI Emoji" font-size="16px" fill="#000000" text-anchor="start" style="white-space: pre;" direction="ltr">label_sp (point to label stack top)</text></g><g transform="translate(108.10870899728445 442.66673278808594) rotate(0 60.5 10)"><text x="0" y="14" font-family="Virgil, Segoe UI Emoji" font-size="16px" fill="#000000" text-anchor="start" style="white-space: pre;" direction="ltr">func arguments</text></g><g transform="translate(184.7753960090032 556.6668548583984) rotate(0 65.5 10)"><text x="0" y="14" font-family="Virgil, Segoe UI Emoji" font-size="16px" fill="#000000" text-anchor="start" style="white-space: pre;" direction="ltr">&lt;operand stack&gt;</text></g><g stroke-linecap="round" transform="translate(68.10867847970633 162.50004577636707) rotate(0 213.8333282470703 240.6666870117188)"><path d="M-0.54 -0.85 C154.12 -0.5, 307.43 -1.34, 428.36 0.88 M-0.09 0.26 C89.57 0.85, 178.88 1.38, 427.32 0.09 M428.44 0.76 C428.62 136.46, 428.95 272.01, 427.93 480.56 M427.92 0.08 C428.3 180.45, 428.19 360.44, 427.39 481.2 M427.69 480.7 C307.19 481.41, 186.52 481.64, 0.94 480.91 M428.12 481.01 C337.75 481.14, 247.4 481.09, -0.11 480.88 M0.64 481.85 C-0.78 359.05, -1.2 235.53, -0.68 -0.13 M0.36 481.03 C0.85 314.33, 1.33 146.99, -0.38 -0.06" stroke="#000000" stroke-width="1" fill="none"></path></g><g stroke-linecap="round" transform="translate(106.77530445626883 186.1667022705078) rotate(0 189.16673278808594 16.833351135253906)"><path d="M0.58 -0.77 C95 1.45, 190.96 2.08, 378.36 -0.73 M-0.27 0.55 C129.45 -2.06, 259.56 -1.59, 378.86 -0.38 M378.48 -0.43 C376.65 9.46, 379.13 22.19, 379.82 34.88 M378.29 -0.78 C378.42 10.54, 378.08 21.03, 379.17 32.96 M378.51 32.6 C278.38 34.19, 178.5 34.35, -0.41 33.32 M377.81 33.27 C281.04 35.44, 183.63 35.55, -0.18 33.17 M-1.7 34.12 C0.05 23.51, 1.54 12.52, -0.55 -0.72 M0.9 34.03 C0.04 25.26, 0.51 16.63, -0.05 -0.13" stroke="#000000" stroke-width="1" fill="none"></path></g><g stroke-linecap="round" transform="translate(106.1086479621282 229.50003051757812) rotate(0 188.83340454101562 14.166664123535156)"><path d="M0.18 -0.75 C149.08 0.96, 297.55 0.51, 377.55 -0.95 M-0.06 -0.12 C80.08 -1, 159.23 -0.73, 377.39 -0.36 M377.34 0.35 C378.54 7.04, 377.82 13.35, 375.74 29.17 M377.09 -0.81 C378.04 6.74, 377.77 14.29, 376.79 27.67 M377.35 29.21 C303.21 27.29, 226.22 27.53, 0.05 28.53 M377.97 28.79 C285.78 25.99, 193.94 26.71, -0.01 28.21 M1.02 28.24 C-0.11 21.01, -0.53 17.16, -1.73 0.54 M0.66 28.99 C-0.73 20.49, -0.45 10.35, -0.07 -0.77" stroke="#000000" stroke-width="1" fill="none"></path></g><g stroke-linecap="round" transform="translate(105.44196095040945 264.1667022705078) rotate(0 190.16665649414062 12.333328247070312)"><path d="M-1 0.6 C121.14 0.1, 239.6 0.48, 380.89 -0.01 M0 0.3 C106.25 0.7, 212.26 0.57, 380.77 -0.52 M379.92 1.32 C381.65 6.68, 381.8 15.3, 378.65 24.53 M380.6 -0.97 C379.99 5.73, 379.59 11.29, 379.5 24.79 M380.99 25.31 C269.88 25.64, 158.52 25.54, 1.2 25.2 M380.3 25.12 C248.79 26.26, 117.64 25.32, 0.13 25.14 M-0.77 23.62 C-1.33 17.38, 2.09 12.67, -1.77 0.8 M-0.62 24.79 C-0.47 15.51, -1.16 4.55, -0.96 -0.77" stroke="#000000" stroke-width="1" fill="none"></path></g><g stroke-linecap="round" transform="translate(107.7752739386907 299.8333740234375) rotate(0 95.16665649414062 12.666679382324219)"><path d="M-1.5 0.42 C48.32 -0.72, 92.37 2.82, 189.56 -1.05 M-0.55 -0.88 C43.47 -0.89, 86.94 -2.04, 189.72 0.12 M189.2 -1.91 C188.94 8.75, 191.11 14.01, 189.87 23.68 M190.83 0.59 C190.15 8.49, 190.67 17.25, 189.93 26.24 M188.88 25.77 C135.38 25.95, 80.93 25.94, 1.5 23.95 M189.89 26.19 C128.61 26.88, 66.46 27.31, -0.03 25.91 M-1.68 23.82 C-0.37 14.11, -0.59 4.67, -0.72 -1.73 M0.86 25.37 C-0.09 20.27, 0.02 15.54, -0.14 0.71" stroke="#000000" stroke-width="1" fill="none"></path></g><g stroke-linecap="round" transform="translate(108.77530445626883 332.1667022705078) rotate(0 188.8333282470703 14.000015258789062)"><path d="M0.88 1.13 C141.06 0.42, 283.81 -0.9, 378.38 0.23 M0.22 0.18 C111.52 -2.35, 223.98 -2.35, 377.51 -0.38 M376.3 -1.82 C379.14 7.47, 376.9 14.85, 377.36 28.76 M377.68 -0.52 C377.7 8.25, 377.21 16.98, 378.2 27.33 M376.58 29.18 C292.56 28.11, 208.16 29.21, 0.38 27.98 M377.11 27.89 C255.75 27.49, 132.92 28.07, -0.29 28.54 M0.64 29.32 C-1.01 17.52, 1.09 7.34, 1.52 -1.79 M0.56 28.19 C0.61 20.93, -0.66 15.2, 0.42 0.73" stroke="#000000" stroke-width="1" fill="none"></path></g><g stroke-linecap="round" transform="translate(108.77530445626883 371.5000457763672) rotate(0 98.66670227050781 11.666641235351562)"><path d="M0.87 1.41 C66.79 -1.13, 138.28 -2.59, 196.47 1.29 M-0.73 -0.63 C45.41 2.33, 90.19 2.2, 196.62 -0.84 M198.47 -0.81 C196.87 8.03, 199.21 15.36, 195.61 22.03 M197.32 0.87 C196.89 8.39, 197.4 18.02, 196.53 24.28 M197.01 22.8 C143.53 25.68, 87.21 23.15, 1.69 22.74 M197.22 22.86 C149.41 22.68, 99.29 21.73, -0.01 23.65 M-0.7 24.83 C-0.21 13.81, -0.15 7.66, 0.04 -0.32 M0.56 24.32 C-0.16 14.53, -1.08 7.25, -0.85 -0.39" stroke="#000000" stroke-width="1" fill="none"></path></g><g stroke-linecap="round" transform="translate(109.44196095040945 402.5000457763672) rotate(0 174.8333740234375 17.333328247070312)"><path d="M-0.62 0.91 C109.63 -0.77, 216.74 0.24, 350.08 0.52 M0.49 -0.09 C95.58 0.73, 192.26 0.81, 349.56 0.27 M351.64 0.09 C348.09 11.69, 349.46 25.17, 348.88 34.37 M349.29 -0.48 C349.88 8.36, 349.65 19.4, 349.54 35 M348.69 35.28 C220.91 34.28, 93.44 33.79, 1.12 33.84 M349.87 34.56 C272.89 37.01, 195.34 36.15, -0.33 35.01 M-2 32.78 C1.78 24.38, -1.94 11.56, 0.43 -1.96 M-0.64 35.42 C0.68 23.22, -1.08 11.45, -0.36 -0.9" stroke="#000000" stroke-width="1" fill="none"></path></g><g stroke-linecap="round" transform="translate(107.44196095040945 463.1667022705078) rotate(0 176.16668701171875 19.3333740234375)"><path d="M0.96 0.54 C121.41 -0.7, 243.43 -2.21, 352.43 -1.03 M0.37 -0.07 C121.29 2.43, 241.7 1.57, 352.57 0.08 M352.99 -1.59 C351.94 14.76, 352.24 25.8, 351.17 40.44 M351.42 -0.28 C351.87 9.92, 352.72 21, 351.85 39.2 M353.26 37.41 C234.05 36.58, 113.84 35.25, -0.74 39.82 M352.7 38.41 C212.85 40.49, 73.35 41.13, -0.19 38.2 M-0.38 40.24 C0.23 31.18, 0.74 23.76, -1.14 -1.76 M-0.64 39.33 C-0.75 29.56, -0.14 20.27, -0.3 -0.31" stroke="#000000" stroke-width="1" fill="none"></path></g><g stroke-linecap="round" transform="translate(69.7755180793157 90.16671752929688) rotate(0 212.1667022705078 35.333343505859375)"><path d="M0 0 C0 0, 0 0, 0 0 M0 0 C0 0, 0 0, 0 0 M-0.48 6.85 C0.59 4.45, 3.06 3.49, 4.84 1.04 M-0.27 6.7 C1.58 4.04, 3.28 1.87, 5.18 0.55 M0.11 11.22 C4.04 6.34, 7.7 2.7, 10.74 -0.54 M-0.24 12.56 C2.44 9, 4.22 6.32, 10.86 -0.63 M-0.05 19.55 C5.92 13.26, 6.26 9.28, 16.28 0.78 M-0.43 18.97 C5.6 13.69, 8.6 7.05, 14.93 -0.5 M0.41 24.08 C9.14 15.72, 15.77 6.63, 22.18 -1.14 M0.68 24.41 C5.17 19.75, 8.46 14.72, 20.9 0.5 M-0.79 29.79 C11.21 17.84, 19.94 7.05, 24.32 1.5 M-0.4 30.53 C9.68 18.78, 19.94 8.05, 26.19 -0.43 M-0.54 38.02 C7.79 26.07, 14.13 19.59, 31.34 1.31 M0.5 37.05 C9.06 25.95, 18.12 15.17, 31 0.84 M0.46 43.83 C12.59 27.96, 21.68 18.14, 36.2 0.86 M0.8 42.53 C7.59 32.03, 16.65 22.62, 36.77 -0.29 M0.5 49.46 C9.47 37.9, 21.15 25.52, 42.15 -2.11 M0.75 49.01 C9.58 36.65, 21.28 26.53, 43.04 -0.87 M2.12 54.36 C15.26 34.31, 32.03 17.36, 46.25 -1.38 M-0.25 55.1 C11.59 41.14, 22.61 28.72, 47.79 0.04 M-0.28 60.41 C18.27 41.66, 35.56 20.72, 53.37 -1.08 M0.62 60.41 C19.89 38.75, 39.05 17.43, 52.39 -0.31 M0.8 65.96 C13.73 53.5, 27.22 34.37, 59.67 1.66 M-0.09 66.59 C18.19 45.86, 35.87 23.91, 57.9 0.09 M2.14 69.76 C17.76 50.15, 35.22 34.63, 62.65 -2.16 M0.82 70.52 C21.41 49.48, 39.31 28.76, 63.99 0.29 M4.51 72.52 C25.15 52.83, 42.15 33.81, 68.57 -0.02 M6.86 70.93 C27.57 46.21, 50.32 21.4, 69.32 0.84 M10.21 71.94 C36.22 46.4, 58.54 18.98, 74.51 -0.77 M12.2 70.53 C28.38 51.78, 42.84 33.41, 74.36 0.12 M17.01 71.88 C34.61 50.56, 51.27 30.82, 79.88 -1.27 M16.56 72.36 C38.59 46.37, 60.29 21.32, 79.84 0.72 M24.22 72.16 C41.79 50.54, 58.93 28.3, 84.36 -1.21 M22.12 70.66 C44.56 45.06, 66.99 18.94, 85.56 -0.18 M28.23 69.78 C42.43 53.23, 56.59 35.17, 91.45 -1.83 M27.9 71.28 C42.55 52.47, 58.56 36.01, 90.81 -0.43 M32.49 72.19 C50.85 51.01, 65.73 33.04, 94.45 -0.67 M32.67 72.02 C50.44 50.43, 68.09 31.12, 95.22 -0.55 M38.97 70.53 C60.65 48.09, 80.64 23.22, 99.98 1.67 M39.26 71.03 C62.21 43.49, 87.48 17.55, 101.14 0.68 M41.58 73.65 C56.49 53.47, 74 38.09, 105.95 -1.2 M42.85 71.91 C58.9 53.12, 74.94 34.64, 106.53 0.54 M48.87 73.58 C60.91 57.59, 77.92 42.37, 113.07 -0.24 M48.58 72.35 C72.99 45.24, 97.18 17.85, 111.31 0.8 M54.88 71.06 C77.05 46.5, 101.09 16.83, 118.2 -0.97 M53.21 72.79 C69.21 55.01, 86.07 36.02, 115.59 0.79 M60.44 73.51 C82.7 45.37, 105.88 14.98, 121.16 -1.95 M59.37 71.46 C74.5 56.68, 87.41 39.37, 121.34 0.07 M64.69 72.3 C85.13 45.77, 107.98 20.44, 127.43 -1.29 M63.88 72.84 C87.61 45.35, 110.95 19.66, 126.03 1.06 M71.08 72 C86.33 56.05, 97.75 39.21, 133.59 1.33 M70.68 71.98 C86.2 52.67, 101.17 35.77, 132.85 0.12 M74.86 71.63 C88.3 55.33, 100.13 43.67, 138.75 1.92 M75.19 72.91 C91.21 53.61, 106.82 33.68, 137.08 -0.05 M81.07 69.89 C103.41 48, 126.13 20.09, 142.58 1.46 M81.17 70.98 C102.42 47.81, 125.93 21.21, 142.98 -0.03 M84.08 70.44 C106.62 48.87, 129.87 25.18, 148.8 -0.9 M85.08 71.29 C106.39 48.57, 128.7 23.98, 148.17 0.7 M89.56 71.12 C106.36 51.33, 123.39 33.21, 155.2 1.45 M91 70.99 C111.57 48.03, 131.71 25.19, 154.47 0.11 M97.95 73.23 C115.68 48.24, 136.49 28.3, 157.11 -0.17 M96.99 71.72 C116.77 47.85, 137.95 24.35, 158.31 0.03 M102.55 70.76 C118.04 51.79, 131.41 35.6, 165.41 -0.54 M101.95 71.94 C124.22 46.89, 146.1 22.2, 163.6 0.46 M108.92 71.64 C121.31 53.31, 136.18 38.46, 170.06 0.79 M107.98 71.36 C127.56 48.69, 148.96 23.56, 170.07 0.05 M112.95 71.01 C133.34 45.57, 157 20.15, 174.06 0.72 M113.32 71.23 C131.42 50.38, 151.24 27.52, 174.21 0.37 M116.33 72.43 C138.37 44.12, 163.88 18.12, 180.94 1.83 M118.65 72.81 C140.06 44.92, 162.68 19.01, 179.58 0.36 M124.54 73.19 C144.72 46.91, 169.29 19.36, 184.84 1.63 M124 71.67 C140.49 51.21, 158.47 30.87, 185.73 0.64 M126.38 73.49 C151.44 45.05, 176.13 20.17, 189.9 1.87 M129.14 72.12 C140.31 58.02, 154.86 42.12, 190.54 -0.05 M135.95 69.75 C147.89 55.81, 162.41 36.21, 196.34 1.7 M134.43 71.53 C150.24 53.16, 165.11 35.06, 197.12 -0.52 M140.16 71.82 C162.73 45.48, 185.8 18.66, 199.94 -1 M139.19 72.76 C161.19 45.2, 186.41 18.7, 202.18 -0.72 M144.72 72.26 C164.37 48.59, 182.49 28.52, 206.02 -0.44 M144.61 70.5 C167.76 45, 189.74 19.57, 206.91 0.58 M149.63 71.56 C173.73 44.65, 193.81 18.96, 212.97 -1.59 M150.09 71.66 C171.58 49.18, 190.45 25.81, 211.34 0.23 M155.22 71.42 C177.84 42.3, 206.2 14.6, 218.22 0.97 M156.12 71.72 C172.13 50.01, 190.49 29.1, 217.22 -0.97 M161.62 71.97 C175.28 55.35, 187.74 43.13, 221.76 0.42 M160.68 71.16 C177.76 53.13, 193.8 33.64, 222.4 0.12 M166.09 73.8 C188.13 47.49, 211.84 21.16, 228.13 -1.18 M165.42 72.53 C183.19 54.05, 198.3 33.79, 227.69 -0.63 M169.84 71.43 C195.07 44.4, 214.66 19.38, 233.95 0.48 M171.37 71.07 C192.66 47.57, 214.48 23.76, 233.28 -0.28 M176.78 70.85 C198.7 46.41, 222.6 18.16, 237.2 1.87 M176.52 71.41 C191.59 53.95, 206.26 35.86, 238.9 0.34 M182.88 71.46 C194.99 54.32, 210.79 38.46, 244.07 1.17 M182.13 72.6 C198.36 54.74, 213.19 36.18, 243.51 -0.77 M187.65 71.39 C207.41 43.8, 230.31 17.87, 247.7 -0.25 M187.02 72.57 C209.69 45.59, 233.18 19.12, 248.95 -0.15 M192.19 72.68 C217.42 45.41, 240.92 17.98, 253.52 0.17 M192.51 72.43 C206.13 56.48, 219.71 39.48, 254.15 0.27 M198.61 70.61 C210.97 56.79, 225.96 41.19, 258.79 -0.53 M196.74 72.91 C212.05 53.39, 228.93 35.4, 259.52 -0.49 M204.11 70.87 C224.39 48.19, 244.43 24.62, 266.56 -1.68 M203.6 70.67 C217.15 55.23, 231.78 39.29, 265.82 -0.07 M208.42 70.85 C219.47 57.57, 232.39 42.26, 269.19 -1.59 M207.05 72.73 C228.8 47.51, 251.47 22.79, 270.53 -0.39 M211.84 72.89 C237.78 45.09, 259.67 18.75, 274.34 -0.44 M214.06 70.84 C225.55 57.55, 238.56 43.33, 274.73 0.71 M218.73 73.54 C238.29 49.72, 256.49 28.09, 280.48 1.09 M218.91 71.81 C239.88 44.99, 263.71 19.25, 281.46 -0.13 M223.48 72.77 C241.35 49.79, 263.24 27.8, 286.89 -1.04 M224.12 71.94 C237.7 57.46, 252.43 40.49, 286.62 0.56 M230.05 71.26 C249.71 49.69, 266.91 28.03, 293.13 -0.86 M228.8 71.34 C242.38 56.83, 254.61 42.44, 291.33 -0.53 M233.97 71.63 C256.65 45.8, 275.72 23.49, 297.09 -1.28 M235.55 72.37 C251.49 50.82, 269.77 31.55, 296.81 -1.13 M237.8 71.71 C254.93 50.54, 273.38 34.51, 302.46 -0.69 M238.81 71.96 C258.28 49.84, 275.94 28.82, 302.75 1.01 M245.16 69.75 C271.89 41.5, 293.14 15.88, 308.73 0.17 M245.72 72 C266.62 47.79, 285.28 25.6, 308.18 0.47 M252.23 73.71 C270.56 50.6, 290.34 24.36, 310.69 -0.49 M250.55 71.74 C263.5 55.76, 276.06 41.19, 311.87 0.54 M257.75 70.49 C268.48 56.92, 281.58 44.17, 316.44 -0.26 M255.53 72.11 C273.15 52.62, 290.48 33.86, 319.18 -0.4 M262.51 71.2 C278.45 54.35, 294.27 34.03, 322.9 0.72 M261.23 72.18 C277.33 51.53, 295.01 32.22, 322.43 -0.48 M267.33 72.38 C278.56 57.25, 292.93 42.49, 329.76 1.01 M267.46 71.44 C287.57 46.69, 308.8 22.05, 329.81 -0.03 M272.63 73.26 C291.04 50.86, 310.45 27.02, 335.04 -0.9 M271.6 72.25 C293.35 46.87, 316.75 20.06, 333.71 0.88 M275.7 73.79 C291.16 57.83, 304.05 41.1, 341.07 -1.32 M276.88 72.91 C297.7 47.62, 320.74 20.55, 339.63 -1.28 M281.51 72.09 C303.73 47.33, 327.93 22.44, 345.96 1.9 M281.98 72.32 C296.66 54.29, 313.19 35.69, 344.55 0.97 M285.51 73.99 C300.62 57.82, 310.22 43.56, 348.99 -0.67 M286.71 72.61 C300.94 56.83, 314.42 42.33, 349.13 1.18 M290.92 71.01 C312.49 46.98, 333.58 22.57, 353.35 -0.5 M292.23 72.22 C313 48.13, 332.79 24.94, 355.37 -0.41 M296.3 73.61 C317.16 50.14, 333.24 30.98, 360.97 -1.61 M297.44 72.33 C323.28 42.45, 347.89 14.44, 360.3 -0.17 M301.5 72.46 C319.43 50.5, 338.15 31.93, 365.82 1.41 M303.82 71.2 C319.33 54.06, 334.34 36.01, 366.14 -0.04 M307.16 71.66 C333.73 45.72, 357.85 16.61, 369.4 0.69 M307.82 72.57 C327.64 48.43, 347.3 26.6, 370.74 0.9 M312.77 70.02 C327.18 55.85, 342.24 39.47, 374.8 0.27 M313.74 71.98 C332.12 50.54, 350.03 30.92, 376.4 0.76 M320.06 70.28 C337.15 52.34, 356.08 29.56, 382.15 1.42 M318.11 71.23 C340.17 47.34, 361.11 21.17, 382.28 1.26 M323.12 72.38 C342.31 51.68, 364.04 29.61, 386.65 -0.16 M324.56 70.67 C336.98 56.81, 350.74 41.16, 387.25 0.08 M327.83 70.72 C343.97 55.91, 355.91 43.48, 390.01 -1.08 M330.17 71.66 C352.16 44.25, 376.49 17.77, 392.28 -0.77 M333.84 71.37 C350.67 52.88, 369.44 32.83, 398.56 -1 M334.41 70.87 C356.73 47.4, 378.45 22.54, 397.34 -0.54 M342.16 73.37 C359.02 48.87, 378.87 29.73, 402.62 -1.37 M339.42 72.68 C356.69 52.79, 372.88 34.57, 401.7 0.59 M345.07 69.93 C368.06 44.34, 392.9 17.74, 406.62 -0.23 M344.98 71.56 C367.7 45.66, 389.78 20.75, 408.9 -0.1 M349.66 73.74 C369.62 52.14, 385.29 31.9, 412.5 1.11 M350.82 72.49 C374.62 43.42, 399.4 15.61, 413.04 0.52 M355.83 70.14 C376.32 49.74, 390.83 29.88, 417.79 -0.73 M357.52 71.22 C372.98 51.61, 391.48 33.49, 419.72 -0.21 M359.77 70.46 C384.73 46.11, 407.85 21.27, 423.05 2.07 M360.91 72.77 C379.87 51, 398.87 28.71, 424.37 -0.34 M368.01 73.2 C390.42 47.3, 410.92 20.23, 427.28 0.79 M366.87 71.71 C381.01 56.68, 396.04 40.28, 426.52 2.03 M372.84 73.3 C387.07 56.12, 399.21 42, 425.32 8.63 M371.78 72.62 C388.57 54.63, 402.65 36.91, 428.09 8.39 M378.39 71.42 C396.89 52.46, 415.31 28.28, 426.55 13.74 M377.38 72.37 C393.96 51.4, 411.98 32.25, 426.96 13.93 M384.07 71.14 C391.07 58.88, 401.52 48.45, 428.39 22.21 M383.11 72.58 C398.88 53.46, 412.28 37.25, 427.34 19.69 M385.95 73.01 C395.55 61.08, 406.09 52.46, 427.06 27.59 M388.36 72.71 C397.23 59.81, 409.28 46.82, 427.4 27.17 M391.54 71.99 C401.26 60.09, 413.11 50.3, 426.92 32.86 M394.11 72.65 C400.61 63.03, 409.68 54.12, 427.5 33.48 M398.54 71.02 C406.65 60.17, 419.02 50.56, 427.26 39.96 M398.62 71.41 C408.79 59.57, 419.76 46.74, 427.86 37.92 M404.21 70.98 C409.94 64.71, 417.3 55.18, 425.1 43.28 M403.58 72.22 C411.04 63.61, 418.31 55.28, 426.19 44.65 M408.88 71.93 C415.94 63.58, 421.22 58.43, 428.49 51.62 M408.56 72.88 C416.76 63.77, 423.81 55.9, 427.95 51.78 M413.96 70.44 C420.21 67.35, 422.46 61.31, 428.02 57.52 M413.89 72.13 C419.33 65.71, 424.09 60.99, 426.68 57.75 M420.56 72.3 C421.15 70.31, 422.65 67.94, 426.58 63.44 M419.22 72.1 C421.7 70.11, 422.7 68.73, 426.5 64.18" stroke="#15aabf" stroke-width="0.5" fill="none"></path><path d="M-0.38 -0.99 C129.93 1.12, 260.67 0.49, 424.57 0.6 M0.19 -0.52 C122.35 1.73, 244.37 2.19, 424.44 0.22 M426.25 1.17 C425.12 26.67, 423.52 50.29, 423.57 69.94 M425.17 0.86 C424.17 28.45, 425.56 54.21, 424.21 70.51 M424.49 70.85 C265.49 69.39, 108.23 69.4, -0.73 70.59 M424.8 70.31 C310.66 70.63, 196.23 69.69, 0.25 70.39 M0.65 71.59 C-1.35 54.35, 2.21 39.95, -1.61 -0.57 M0.98 70.15 C0.08 54.29, -0.18 39.72, -0.52 -0.03" stroke="#000000" stroke-width="1" fill="none"></path></g><g stroke-linecap="round" transform="translate(122.77554859689383 470.5000457763672) rotate(0 29.333328247070312 12.500045776367188)"><path d="M0 0 C0 0, 0 0, 0 0 M0 0 C0 0, 0 0, 0 0 M-0.61 6.43 C1.18 3.41, 4.43 1.85, 5.73 0.49 M-0.62 6.36 C1.58 4.31, 3.14 2.27, 5.32 0.39 M-0.78 11.49 C3.85 7.54, 6.94 2.21, 9.88 -0.43 M0.25 12.52 C3.3 7.92, 6.26 3.57, 10 -0.38 M-1.79 20.03 C7.32 12.57, 10.6 5.33, 14.6 1.4 M-0.87 18.09 C6.1 10.81, 11.45 3.72, 15.74 -0.34 M-1.13 23.57 C5.15 18.66, 10.15 12.58, 22.77 -0.47 M0.44 24.91 C5.91 17.13, 11.86 10.73, 20.97 -0.75 M1.48 28.69 C11.51 15.99, 19.55 6.49, 25.72 -1.15 M3.5 27.19 C10.46 18.66, 20.21 8.54, 27.16 0.98 M9.5 25.07 C16.67 17.95, 23.21 9.18, 31.27 1.55 M7.41 27.23 C17.34 17.48, 23.32 9, 31.08 0.07 M12.81 26.61 C20.56 21.31, 25.67 13.92, 35.05 0.27 M13.53 27.95 C18.52 21.67, 22.7 16.77, 36.93 0.75 M18.97 26.64 C28.42 19.07, 36.66 10.08, 42.49 -0.65 M19.54 27.23 C23.88 21.35, 28.32 15.25, 43.29 0.55 M22.1 26.19 C29.68 18.62, 39.57 9.83, 48.31 0.07 M23.23 27.26 C30.35 19.52, 37.2 11.67, 47.45 0.76 M28.87 27.21 C34.04 21.14, 42.33 13.4, 54.55 -2.12 M29.36 26.97 C37.57 16.32, 46.69 7.03, 52.31 0.72 M34 25.86 C38.74 22.1, 46.25 13.48, 58.06 -0.27 M34.04 26.38 C41.85 19.28, 49.26 9.25, 58.71 0.25 M37.62 26.52 C48.42 21.47, 52.45 11.17, 61.86 4.24 M38.94 27.7 C44.81 20.55, 50.36 14.58, 61.75 3.03 M44.03 27.21 C49.61 22.06, 52.17 19.1, 60.56 8.21 M44.96 28 C49.76 20.58, 56.97 15.51, 61.02 8.18 M48.74 28.97 C56.06 23.52, 60.07 16.75, 62.8 15.53 M49.91 27.8 C53.24 24.9, 54.42 21.96, 62.07 14.47 M55.24 27.12 C56.93 25.77, 59.58 23.11, 61.86 20.6 M56.13 27.73 C57.9 25.73, 59.14 23.68, 61.57 20.33" stroke="#40c057" stroke-width="0.5" fill="none"></path><path d="M-1.28 0.1 C15.63 0.82, 35.88 0.92, 57.41 -0.36 M-0.91 0.04 C16.99 0.03, 34.69 -0.79, 58.38 0.69 M58.04 -1.68 C58.29 6.92, 57.35 11.92, 59.46 24.56 M58.43 -0.9 C58.96 7.93, 59.03 15.16, 57.84 24.62 M59.74 23.56 C41.32 24.18, 25.35 26.83, 1.76 26.54 M58.96 25.22 C40.78 25.89, 22.07 24.44, 0.43 25.23 M1.19 24.65 C0.8 15.76, 1.06 9.89, 0.16 0.15 M-0.32 24.57 C0.36 17.54, 0.69 12.8, -0.24 0" stroke="#000000" stroke-width="1" fill="none"></path></g><g stroke-linecap="round" transform="translate(204.77553333810476 470.3334045410156) rotate(0 29.333328247070312 12.500045776367188)"><path d="M0 0 C0 0, 0 0, 0 0 M0 0 C0 0, 0 0, 0 0 M0.15 5.81 C1.15 4.64, 2.4 4.48, 4.91 -0.19 M-0.51 6.08 C0.7 5.09, 1.86 3.46, 5.2 0.38 M0.59 11.75 C2.95 10.48, 4.67 6.26, 10.19 1.21 M0.22 11.68 C3.85 8.02, 6.16 4.9, 10.19 0.43 M-1.66 18.17 C2.35 13.5, 5.96 10.69, 14.22 0.21 M0.64 19.17 C6.24 12.45, 12.79 4.69, 14.85 0.51 M-0.21 23.88 C7.42 14.66, 17.33 7.24, 19.53 -0.6 M-0.3 23.11 C4.74 17.9, 9.39 12.91, 20.29 0.47 M3.06 28.45 C8.75 17.93, 15.86 10.28, 26.92 1.35 M2.53 27.37 C10.75 18.5, 18.43 9.97, 25.33 -0.59 M9.37 28.45 C16.88 18.65, 22.14 8.57, 32.37 0.99 M8.32 26.8 C16.37 17.92, 26.09 7.38, 30.96 0.79 M13.16 28.15 C17.97 22.72, 23.21 16.13, 36.95 0.71 M13.5 26.73 C19.28 21.14, 24.89 14.33, 37.42 0.2 M19.79 28.23 C25.07 21.33, 29.53 14.18, 43.26 1.06 M18.56 26.56 C26.15 18.68, 33.15 11.25, 41.76 -1.1 M24.93 27.58 C29.51 20.06, 36.58 13.23, 45.51 -0.48 M24.6 26.43 C29.66 21.28, 36.1 14.07, 47.01 -0.45 M31.1 25.97 C33.79 21.89, 40.84 14.75, 53.95 1.25 M28.92 26.82 C35.1 21.03, 41.23 13.15, 53.79 -0.27 M33.62 26.89 C40.81 19.64, 45.82 14.64, 56.92 1.85 M34.18 28.17 C41.82 19.43, 47.32 13.25, 57.42 -0.32 M40.48 28.99 C42.97 23.88, 49.55 14.93, 62.7 1.11 M39.33 27.29 C44.98 21.6, 50.88 13.4, 60.96 2.82 M45.61 29.1 C47.48 23.24, 53.31 18.22, 63.42 6.97 M46.04 27.19 C51.95 19.77, 56.99 12.52, 62.19 8.68 M50.17 29.01 C55.24 22.71, 56.46 19.58, 60.43 14.18 M50.96 27.11 C53.73 22.7, 57.52 17.9, 61.9 14.35 M55.16 27.66 C58.4 25.7, 59.53 23.28, 62.51 20.35 M55.61 26.85 C57.58 24.93, 59.72 22.4, 61.58 20.89" stroke="#40c057" stroke-width="0.5" fill="none"></path><path d="M-1.37 -1.66 C22.02 2.21, 43.01 0.59, 58.67 1.45 M0.46 -0.54 C18.35 0.35, 38.88 0.32, 59 0.77 M57.95 1.14 C60.56 9.15, 58.77 17.17, 57.98 25.82 M57.7 0.61 C59.36 6.45, 58.56 12.97, 58.72 24.63 M58.55 23.55 C41.29 24.96, 24.81 25.01, 1.15 25.13 M58.39 25.71 C46.75 25.29, 34.88 25.93, 0.17 25.17 M-1.78 26.89 C0 20.45, 0.31 12.5, 1.31 1.79 M-0.34 25.3 C-0.64 20.57, 0.1 15.12, 0.01 -0.8" stroke="#000000" stroke-width="1" fill="none"></path></g><g stroke-linecap="round" transform="translate(277.4422203498235 468.6666564941406) rotate(0 29.333328247070312 12.500045776367188)"><path d="M0 0 C0 0, 0 0, 0 0 M0 0 C0 0, 0 0, 0 0 M-0.77 5.76 C0.46 5.14, 1.59 3.25, 5.42 0.41 M-0.15 6.32 C1.05 5.31, 2.09 3.57, 4.88 0.67 M0.31 11.32 C4.32 7.78, 5.61 5.39, 9.75 0.89 M-0.48 11.93 C2.11 8.89, 4.57 6.59, 10.07 -0.08 M1.41 19.91 C6.48 13.37, 13.48 4.85, 14.08 0.7 M-0.37 18.34 C5.41 11.53, 12.26 5.63, 14.75 0.06 M-0.87 22.13 C4.77 17.09, 9.56 12.27, 19.32 1 M0.48 24.58 C5.92 16.32, 12.02 9.56, 21.59 0.46 M2.43 27.29 C11.29 18.55, 18.92 10.38, 24.41 -1.48 M3.18 28.15 C10.54 19.06, 16.76 9.9, 26.49 0.84 M8.37 26.54 C15.93 18.69, 26.78 7.49, 30.04 1.68 M8.22 27.43 C13.19 21.96, 18.3 15.81, 31.92 0.12 M13.74 26.04 C19.73 21.09, 25.43 13.81, 37.96 0.14 M13.7 28.03 C19.48 21.02, 24.86 13.82, 37.25 0.85 M18.22 26.09 C26.71 17.84, 34.04 10.65, 41 -2.06 M19.42 27.12 C25.05 19.74, 31.82 12.6, 41.52 -0.49 M25.31 25.48 C29.21 21.86, 36.17 14.27, 46.51 -1.13 M24.67 26.88 C28.53 21.94, 34.48 15.57, 47.91 0.93 M28.31 26.63 C34.93 21.63, 41.45 12.47, 54.42 -0.36 M29.08 26.76 C35.57 19.78, 40.96 13.96, 52.54 0.66 M33.84 28.98 C42.67 18.9, 47.04 14.18, 56.7 -0.83 M35 27.99 C38.93 22.12, 45.01 14.44, 58.91 -0.67 M39.15 26.86 C44.55 22.51, 50.43 12.94, 60.76 2.82 M39.74 28.61 C43.93 22.01, 50.08 15.78, 62.09 2.07 M46.93 27.06 C52.74 19.5, 56.62 12.13, 62.83 8.91 M45.17 28.11 C51.46 20.46, 55.58 14.71, 61.05 8.06 M51.78 26.54 C53.3 22.25, 56.86 17.28, 62.51 13.84 M49.56 28.03 C54.39 24.13, 57.27 19.76, 62.07 14.72 M55.44 26.42 C57.25 24.95, 59.41 22.3, 61.49 21.29 M55.52 27.33 C58.23 24.59, 60.2 22.26, 61.74 20.14" stroke="#40c057" stroke-width="0.5" fill="none"></path><path d="M0.92 -1.07 C17.37 0.78, 39.11 0.73, 59.33 1.55 M-0.36 0.57 C22.05 -0.18, 42.25 -0.66, 58.32 0.41 M56.74 1.21 C60.16 6.21, 58.56 12.56, 58.77 24.25 M58.61 -0.73 C58.09 6.76, 57.98 13.72, 59.24 25.06 M58.12 26.42 C46.6 25.4, 34.64 26.69, 0.34 25.35 M57.78 25.94 C43.63 25.55, 28.73 24.78, 0.65 25.9 M-0.68 25.61 C-1.3 21.4, 0.17 15.78, 0.01 -1.6 M-0.1 24.45 C-0.59 18.45, -0.16 13.16, 0.27 -0.28" stroke="#000000" stroke-width="1" fill="none"></path></g><g stroke-linecap="round" transform="translate(358.10890736154226 469.0000915527344) rotate(0 29.333328247070312 12.500045776367188)"><path d="M0 0 C0 0, 0 0, 0 0 M0 0 C0 0, 0 0, 0 0 M-0.13 5.78 C1.53 4.9, 2.28 2.75, 4.8 0.28 M-0.12 6.05 C1.05 4.4, 2.62 3.51, 4.76 -0.03 M-0.89 10.49 C4.26 8.01, 5.93 5.89, 10.97 0.76 M-0.64 12.31 C3.53 8.96, 6.39 5.89, 10.55 -0.1 M0.7 16.6 C3.66 12.02, 10.62 6.75, 16.72 1.71 M-1.06 18.68 C6.24 12.42, 11.7 5.26, 15.67 0.06 M0.49 22.23 C7.24 15.97, 9.63 9.75, 21.17 0.65 M0.23 24.12 C6.25 16.71, 11.74 10.1, 21.5 -0.76 M1.6 28.55 C10.68 17.28, 19.18 7.34, 27.13 1.49 M3.38 27.83 C10 19.5, 16.35 10.95, 25.91 -0.18 M7.07 25.55 C14.99 16.66, 23.84 5.84, 32.93 0.08 M8.54 26.07 C13.77 19.92, 18.98 13.03, 32.6 -1.06 M13.66 26.43 C17.79 18.58, 23.98 15.38, 38.45 -0.77 M12.83 27.83 C20.06 19.57, 25.53 12.86, 36.27 0.07 M17.54 28.3 C25.23 18.18, 31.97 12.4, 41.62 -0.61 M19.22 26.42 C27.56 18.02, 35.1 8.41, 42.18 0.67 M25.75 25.95 C32.11 15.35, 43.74 8.24, 48.48 1.49 M23.02 28.17 C28.62 20.34, 35.43 14.88, 47.33 -0.21 M28.6 26.6 C35.38 18.91, 41.09 12.29, 53.61 1.61 M29.48 27.93 C33.88 21.83, 40.74 16.11, 54.04 -0.3 M33.76 28.64 C43.99 18.06, 54.11 7.32, 58.18 1.75 M34.98 26.85 C43.18 17.81, 52.33 6.27, 59.1 -0.48 M38.03 29.15 C43.82 22.23, 51.96 13.69, 59.79 3.64 M39.93 28.63 C47.49 18.75, 55.43 7.75, 60.78 1.85 M44.7 26.88 C50.61 24.66, 52.03 18.09, 60.4 8.64 M45.21 27.45 C50.19 20.13, 56.44 13.41, 61.82 7.64 M48.94 29.04 C53.85 23.06, 58.92 19.21, 59.81 16.08 M50.5 27.84 C53.48 25.31, 54.68 22.36, 61.73 15.44 M56.2 27.59 C57.59 24.94, 58.17 24.57, 61.95 20.65 M55.7 27.2 C57.17 25.49, 58.19 24.75, 61.96 20.86" stroke="#40c057" stroke-width="0.5" fill="none"></path><path d="M1.52 0.34 C17.11 -0.73, 33.62 -1.17, 56.89 1.89 M0.16 0.65 C18.55 -0.99, 35.21 0.46, 58.33 0.3 M59.99 0.01 C57.27 4.72, 58.19 11.55, 58.46 23.91 M58.98 0.27 C58.27 5.96, 59.15 11.29, 58.48 24.02 M60.42 25.18 C43.18 23.09, 32.45 26.1, 1.03 23.54 M59.59 24.9 C38 24.57, 18.36 25.35, -0.63 24.2 M-1.05 26.09 C0.09 17.61, -0.55 12.82, 0.57 -0.37 M-0.15 24.73 C0.59 17.1, 0.64 8.42, 0.11 -0.45" stroke="#000000" stroke-width="1" fill="none"></path></g><g stroke-linecap="round" transform="translate(400.7754875617376 234.5000762939453) rotate(0 6.666656494140625 7.833343505859375)"><path d="M0.02 7.97 C0.02 7.97, 0.02 7.97, 0.02 7.97 M0.02 7.97 C0.02 7.97, 0.02 7.97, 0.02 7.97 M2.06 10.26 C5.31 6.78, 8.64 5.19, 10.59 2.93 M2.71 11.38 C5.48 8.4, 7.43 4.41, 10.28 2.18 M6.17 13.96 C7.68 9.91, 10.82 8.55, 13.32 5.89 M5.16 14.4 C8.07 11.42, 9.47 9.22, 12.13 5.34" stroke="#40c057" stroke-width="0.5" fill="none"></path><path d="M6.31 -0.48 C8.59 2.69, 10.97 4.43, 13.48 8.61 M6.68 -0.4 C8.45 2.64, 10.4 3.91, 12.91 8.41 M13.74 7.49 C11.58 11.7, 8.61 12.91, 6.26 15.32 M13.03 8.06 C11.03 10.01, 9.71 12.63, 6.65 15.54 M7.24 16.45 C4.73 13.27, 2.62 12, 0.18 8.86 M7.31 15.51 C4.83 13.97, 3.09 11.98, -0.3 8.32 M-0.65 7.72 C1.47 6.08, 3.67 2.98, 7.92 -0.29 M0.12 8.49 C1.92 6.19, 2.76 4.35, 7.33 -0.53" stroke="#000000" stroke-width="1" fill="none"></path></g><g stroke-linecap="round"><g transform="translate(414.1088005500188 241.8334197998047) rotate(0 48.96403329260647 -1.2578591908153385)"><path d="M-1.49 -0.69 C38.81 -0.97, 75.88 -1.31, 98.92 -2.33 M-0.7 -0.26 C24.31 -0.02, 48.63 -0.32, 99.42 -1.2" stroke="#000000" stroke-width="1" fill="none"></path></g><g transform="translate(414.1088005500188 241.8334197998047) rotate(0 48.96403329260647 -1.2578591908153385)"><path d="M69.91 8.82 C82.48 4.24, 91.81 0.09, 99.67 -2.54 M70.7 9.26 C78.18 7.13, 85.02 4.43, 100.17 -1.4" stroke="#000000" stroke-width="1" fill="none"></path></g><g transform="translate(414.1088005500188 241.8334197998047) rotate(0 48.96403329260647 -1.2578591908153385)"><path d="M69.58 -11.7 C82.26 -8.22, 91.72 -4.31, 99.67 -2.54 M70.37 -11.26 C78.04 -8.31, 84.97 -5.94, 100.17 -1.4" stroke="#000000" stroke-width="1" fill="none"></path></g></g><mask></mask><g stroke-linecap="round" transform="translate(517.4421745734563 225.16676330566406) rotate(0 109 18.5)"><path d="M0 0 C0 0, 0 0, 0 0 M0 0 C0 0, 0 0, 0 0 M0.17 6.35 C0.99 4.73, 2.31 3.22, 5.47 0.32 M-0.11 6.64 C1.67 4.12, 3.39 1.75, 4.8 0.59 M-1.08 10.5 C1.87 8.3, 3.23 7.73, 10.78 -0.88 M-0.67 11.76 C2.88 7.66, 5.85 5.43, 9.86 -0.39 M-1.12 17.09 C3.6 10.73, 12.98 7.02, 14.59 -0.43 M0.27 19.15 C4.45 12.42, 10.14 5.75, 15.44 0.15 M1.54 23.89 C6.65 15.42, 16.1 5.94, 20.79 0.44 M-0.34 24.91 C5.36 18.65, 9.85 11.58, 22.07 0.78 M-1.43 29.46 C4.94 24.29, 14.77 16.28, 27.52 -0.78 M0.78 29.63 C9.83 19.11, 21.27 7.05, 25.82 -0.13 M-0.66 36.89 C11.29 22.19, 24.26 8.55, 33.67 -1.75 M0.68 36.13 C10.75 26.06, 21.21 14.16, 31.76 0.68 M4.04 39.96 C13.15 30.52, 22.04 18.2, 38.44 1.85 M2.26 39.11 C12.85 28.55, 20.83 19.15, 36.21 -0.26 M9.84 37.92 C17.7 31.2, 23.8 18.53, 43.35 1.53 M9.32 38.95 C21.4 24.18, 32.34 10.04, 41.56 -0.88 M12.95 41.23 C25.46 27.16, 33.47 14.63, 47.69 1.23 M13.52 38.69 C21.68 28.99, 30.42 19.33, 46.69 0.87 M20.63 38.54 C26.49 31.16, 35.11 19.98, 54.6 -1.41 M19.22 40.01 C32.96 22.96, 46.3 9.05, 53.84 -0.6 M24.69 40.17 C34.93 23.92, 50.16 11.84, 58.48 -1.78 M23.84 40 C35.99 24.57, 50.53 9.87, 58.95 -0.19 M30.82 40.15 C42.7 23.91, 53.26 9.28, 63.07 0.9 M28.15 40.14 C41.71 26.86, 52.25 12.39, 64.55 0.29 M33.4 37.71 C44.07 32.57, 48.38 21.99, 68.89 0.85 M33.89 39.05 C42.49 32.06, 50.02 23.07, 68.18 0.52 M38.28 38.76 C50.54 29.92, 59.86 16.6, 75.28 -0.99 M39.41 39.05 C49.59 27.37, 60.67 16.11, 75.2 0 M44.11 37.92 C51.93 29.69, 59.91 24.19, 79.87 0.25 M45.93 39.29 C53.47 29.47, 63.55 17.43, 79.19 0.44 M49.84 39.76 C62.08 26.35, 75.02 10.14, 84.62 -1.37 M49.88 40.15 C60.73 25.79, 73.01 13.49, 84.85 0.15 M56.72 40.01 C63.06 31.81, 70.9 18.95, 91.27 -1.32 M55.78 39.6 C68.12 24.21, 82.28 8.63, 90.32 0.4 M59.81 38.9 C72.19 28.92, 79.17 18.53, 95.37 0.59 M60.65 39.57 C73.85 24.96, 87.11 7.84, 96.13 -0.18 M65.99 38.3 C80.09 25.34, 90.9 10.48, 101.79 1.52 M66.83 38.31 C79.46 24.2, 93.29 9.04, 101.49 0.72 M73.41 39.07 C81.39 24.98, 93.73 11.78, 106.68 0.82 M72.39 38.83 C79.3 31.5, 85.53 22.51, 107.23 -0.49 M77.57 38.24 C89.22 25.48, 100.73 13.41, 113.02 1.28 M78 39.19 C84.34 31.95, 92.4 22, 112.16 -0.9 M82.73 38.29 C96.03 27.17, 106.27 11.21, 115.91 -0.85 M81.31 38.93 C91.25 28.8, 98.36 20.08, 117.26 -0.05 M87.98 40.39 C100.66 24.08, 113.37 12.98, 121.4 1.6 M87.82 39.42 C100.34 24.95, 112.7 10.5, 121.37 0.73 M94.72 37.67 C104.54 28.32, 116.61 15.27, 125.26 0.28 M93.22 40.26 C102.84 27.62, 114.25 14.23, 126.83 0.99 M96.63 40.45 C109.86 25.82, 122.72 12.85, 134.29 1.24 M98.33 39.64 C105.9 29.16, 114.09 21.39, 131.72 0.2 M103.21 41.5 C112.23 30.39, 119.23 22.05, 137.86 2.27 M103.44 38.7 C115.97 25.67, 129.27 10.27, 138.19 0.22 M109.78 37.25 C120.68 23.82, 132.42 11, 141.89 -1.92 M109.18 39.93 C116.21 30.37, 125.45 20.4, 143.37 -0.43 M112.92 41.14 C123.87 29.04, 132.49 17.12, 148.35 1.59 M114.91 39.53 C126.07 27.04, 137.18 13.96, 147.76 -0.1 M120.57 40.74 C128.55 29.43, 133.36 21.18, 153.27 1.13 M119.56 39.79 C128.22 27.97, 137.84 18.7, 154.05 0.3 M123.43 39.11 C131.83 31.81, 140.34 23.15, 158.25 1.79 M124.08 39.48 C138.88 23.93, 151.84 7.67, 159.55 -0.28 M129.03 39.98 C140.63 25.38, 151.14 14.72, 164.41 -1.47 M130.22 38.18 C137.14 30.45, 144.64 22.8, 165.04 -0.69 M137.2 41.04 C143.29 31.66, 148.56 22.45, 167.96 1.57 M134.99 38.72 C147.46 23.42, 160.81 8.55, 169.14 0.82 M141.41 39.93 C147.42 32.76, 154.07 22.22, 174.13 1.54 M140.83 40.24 C149.9 29.75, 158.9 18.96, 175.19 -1.04 M147.56 39.7 C155.48 30.42, 160.61 19.72, 180.75 -1.23 M145.25 38.85 C153.93 30.56, 161.65 22.1, 179.64 -0.22 M152.78 38.4 C164.81 23.8, 180.16 8.3, 184.15 0.54 M150.57 40.27 C164 24.97, 176.99 11.16, 184.91 -0.95 M154.72 38.97 C164.74 30.2, 173.63 21.71, 190.76 -1.68 M156.02 38.92 C169.12 24.71, 181.17 10.75, 189.76 0.61 M163.13 38.59 C172.67 28.54, 183.78 16.27, 195.04 1.03 M162.23 40.3 C169.35 31, 177.22 21, 196.18 -1.21 M165.77 37.85 C177.54 26.95, 188.19 14.84, 203.02 0.3 M168.01 39.4 C175.15 29.6, 183.43 20.8, 201.75 0.75 M171.98 38.08 C183.64 25.51, 197.14 11.97, 206.27 -0.33 M172.81 39.03 C181.99 29.26, 191.7 17.01, 206.53 -1.14 M178.66 38.49 C187.1 32.77, 191.27 23.25, 213.43 -0.1 M177.52 40.21 C184.05 31.57, 190.61 24.1, 211.42 -0.91 M181.74 41.55 C192.67 27.65, 204.38 13.4, 216.17 0.2 M182.89 40.58 C192.87 27.11, 204.67 13.93, 217.06 -0.64 M190.23 38.14 C193.49 32.89, 200.48 22.72, 218.78 1.72 M188.39 38.71 C199.36 26.16, 212.9 12.58, 220.19 2.22 M193.67 40.85 C200.46 29.79, 209.19 21.12, 222.08 10.56 M192.6 40.53 C199.64 30.8, 207.99 23.98, 220.55 8.9 M200.18 41.19 C203.75 32.3, 210.67 27.96, 222.16 14.74 M200.04 39.69 C208.18 29.96, 214.73 19.23, 220.44 13.44 M203.93 38.9 C206.68 33.2, 211.68 29.1, 221.32 18.74 M203.61 39.9 C210.12 33.02, 217.04 24.47, 220.49 20.4 M210.9 39.15 C212.7 37.64, 215.73 35.35, 220.67 25.82 M209.48 39.34 C213.02 36.01, 215.04 33.21, 221.15 26.18 M215.07 38.77 C215.64 37.12, 217.89 34.81, 220.11 31.9 M214.93 39.37 C216.41 37.9, 217.96 36.08, 220.91 33" stroke="#40c057" stroke-width="0.5" fill="none"></path><path d="M-0.96 1.01 C58.02 -0.09, 118.22 -2.48, 217.77 -1.07 M-0.61 -0.05 C60.42 -1.23, 118.73 -0.33, 218.64 0.2 M216.46 0.38 C219.48 12.49, 218.98 28.49, 217.8 36.33 M217.13 -0.27 C217.45 10.12, 219.24 19.36, 217.03 37.02 M216.32 37.93 C169.97 35.08, 123.99 36.16, 0.86 36.53 M218.29 37.46 C172.71 35.63, 127.42 35.08, -0.07 37.47 M-1.84 35.23 C-0.11 25.32, 1.02 15.52, 1.38 1.39 M0.24 37.55 C0.73 26.16, 0.26 14.98, -0.26 -0.44" stroke="#000000" stroke-width="1" fill="none"></path></g><g transform="translate(535.4421745734563 233.66676330566406) rotate(0 91 10.5)"><text x="91" y="14" font-family="Virgil, Segoe UI Emoji" font-size="16px" fill="#000000" text-anchor="middle" style="white-space: pre;" direction="ltr">(current func instance)</text></g><g stroke-linecap="round" transform="translate(401.4421745734563 267.50010681152344) rotate(0 6.33331298828125 8.833328247070312)"><path d="M7.27 -0.31 C7.27 -0.31, 7.27 -0.31, 7.27 -0.31 M7.27 -0.31 C7.27 -0.31, 7.27 -0.31, 7.27 -0.31 M1.9 10.99 C4.27 10.22, 5.06 8.1, 9.68 3.26 M2.32 11.29 C4.68 9.27, 6 7.22, 8.93 3.55 M4.54 15.01 C6.18 12.44, 8.93 9.73, 12.17 7.01 M5.18 15.18 C7 11.86, 10.14 8.86, 11.08 6.8" stroke="#40c057" stroke-width="0.5" fill="none"></path><path d="M7.53 -0.29 C7.57 2.33, 8.98 5.01, 13.23 9.29 M6.95 0.29 C9.07 3.44, 11.27 5.87, 12.2 9.02 M13.38 9.72 C11.11 11.2, 8.57 14.15, 7.57 18.33 M12.53 8.77 C11.27 12.13, 9.12 14.06, 7.46 17.2 M7.4 17.43 C5.84 15.5, 3.68 13.54, 0.25 8.26 M6.61 17.92 C5.01 15.5, 2.74 13.01, -0.03 8.81 M0.68 8.94 C3.03 5.07, 5.26 3.8, 7.68 -0.2 M-0.27 9.32 C1.67 6.85, 3.89 3.23, 6.45 -0.15" stroke="#000000" stroke-width="1" fill="none"></path></g><g stroke-linecap="round" transform="translate(532.1088005500188 276.16676330566406) rotate(0 112 26)"><path d="M0 0 C0 0, 0 0, 0 0 M0 0 C0 0, 0 0, 0 0 M-0.62 6.21 C1.23 4.51, 2.21 3.69, 4.5 1.03 M-0.4 6.72 C1.51 4.54, 2.53 3.43, 4.7 0.16 M0.91 13.06 C1.47 10.74, 5.26 5.29, 11.87 -1.4 M-0.01 11.7 C2.65 9.36, 5.5 4.95, 10.47 -0.03 M0.33 20.22 C2.04 14.54, 7.72 9.7, 17.49 -1.16 M0.76 18.31 C6.43 11.17, 11.23 4.21, 16.26 0.55 M0.31 25.65 C8.92 15.08, 13.07 8.27, 20.25 -0.86 M1.23 23.41 C7.35 15.01, 14.64 6.11, 21.98 -0.66 M-1.36 31.31 C10 22.13, 16.79 11.84, 28.08 -0.02 M-0.38 29.52 C8.76 19.98, 18.18 8.97, 26.03 1.17 M-1.4 37.06 C12.85 22.39, 23.81 9.49, 32.15 -1.67 M0.01 36.06 C8.26 27.41, 16.36 18.54, 32.69 -0.37 M-1.61 43.97 C10.16 30.94, 23.48 16.94, 37.24 2.14 M0.66 43.21 C14.18 26.46, 28.53 10.08, 37.21 0.62 M0.48 49.26 C8.12 38.9, 21.71 25.49, 42.15 0.99 M0.48 49.73 C8.66 38.73, 18.35 27.37, 43.42 0.04 M0.67 52.34 C18.68 36.09, 33.07 17.47, 45.79 0.92 M1.28 53.82 C19.63 31.78, 36.44 12.36, 46.88 -0.62 M6.18 53.53 C25.08 30.99, 42.25 9.9, 51.62 -0.88 M6.89 52.83 C22.31 34.88, 36.82 15.98, 52.47 -0.67 M12.22 53.88 C25.6 36.56, 42.36 17.72, 57.68 -1.24 M12.91 53.81 C24.21 38.91, 35.63 26.01, 57.55 -0.53 M18.52 53.85 C30.43 38.05, 43.29 25.62, 65.08 -0.36 M16.36 53.17 C27.32 42.08, 37.27 30.29, 63.56 -0.19 M21.88 52.56 C34.05 39.18, 48.77 24.49, 67.98 1.01 M23.33 52.79 C33.16 41.41, 41.45 30.8, 69.17 0.5 M26.15 54.59 C36.77 43.1, 50.82 30.64, 74.15 0.3 M28.15 53.64 C38.21 41.18, 48.8 30.39, 73.87 -0.64 M34.77 52.65 C52.32 34.12, 70.66 11.66, 78.9 -0.12 M32.97 53.4 C44.88 40.17, 55.71 26.76, 79.12 -0.38 M36.75 54.44 C57.56 34.86, 74.84 11.4, 85.61 -2.24 M38.91 54.14 C51.66 39.09, 63.14 25.18, 85.98 -0.57 M43.16 53.29 C54.97 40.46, 62.5 32.66, 91.74 -1.56 M43.67 53.84 C59.62 35.22, 76.04 17.38, 90.23 -0.43 M49.15 55 C66.98 32.43, 80.83 13.16, 97.33 -0.46 M48.7 54.14 C59 40.78, 70.59 27.99, 95.96 -0.98 M54.43 52.51 C70.32 31.99, 89.08 15.18, 98.97 -1.34 M54.74 53.86 C72.18 33.58, 90.61 13.45, 100.75 0.63 M61.3 52.73 C78.09 35.03, 94.45 16.2, 106.33 0.04 M59.03 52.69 C78 33.01, 94.56 12.83, 107.27 -1.3 M66.44 51.96 C79.08 36.5, 94.06 19.09, 112.14 1.37 M64.24 53.53 C75.53 42.02, 85.89 29.66, 110.39 0.65 M70.26 54.95 C86.04 35, 99.34 19.87, 116.07 1.27 M70.86 52.38 C82.84 38.82, 94.63 26.7, 116.17 1.35 M74.13 53.89 C95.97 33.48, 113.9 10.72, 121.97 -1.72 M75.65 54.22 C88.64 37.87, 103.53 22.3, 122.27 -0.97 M80.24 51.88 C93.76 35.41, 110.21 21.81, 127.15 1.88 M80.57 53.36 C91.17 40.2, 101.66 28.41, 126.34 1.15 M85.61 53.71 C101.2 37.99, 112.8 22.18, 134.26 -0.03 M85.93 53.12 C102.95 32.1, 120.41 12.95, 132.99 0.75 M90.56 52.6 C110.11 33.28, 124.44 13.43, 137.27 1.65 M91.98 53.38 C102.37 41, 111 31.02, 136.91 0.12 M96.75 52.95 C111.3 39.84, 124.4 23.49, 141.97 -0.09 M96.1 54.25 C114.23 32.6, 132.79 12, 142.53 0.36 M103.66 53.08 C112.84 38.07, 124.75 27.83, 147.97 -1.54 M102.36 53.7 C113.65 38.59, 125.29 26.61, 149.11 1.07 M106.58 51.99 C124.08 37.43, 139.66 18.95, 153.18 -1.58 M106.66 53.17 C119.04 40.46, 129.65 29.38, 154.36 -0.06 M113.12 52.13 C126.98 37.64, 138.1 23.77, 159.85 1.1 M112.4 53.19 C129.16 32.28, 148.04 13.45, 159.61 0.38 M117.23 54.12 C134.08 31.57, 151.65 14.33, 163.07 -1.28 M117.53 53.02 C133.43 35.79, 149.39 16.21, 165.36 -0.85 M123.64 51.48 C138.05 38.17, 151.02 22.43, 168.7 1.21 M124.23 52.25 C138.49 34.01, 155.08 17.37, 168.5 0 M129.94 53.47 C140.61 38.18, 155.6 21.49, 173.97 -1.11 M128.04 52.47 C144.04 36.44, 157.7 18.65, 175.85 -0.77 M135.03 51.71 C149.33 35.19, 162.37 18.79, 181.39 1.3 M133.44 52.85 C146.31 37.74, 159.62 23.36, 179.34 -0.58 M137.12 55.06 C154.32 34.8, 170.08 19.52, 187.32 -0.12 M139 53.79 C154.99 36.55, 169.67 19.24, 185.6 -1.04 M146.25 52.28 C156.02 39.61, 168.37 26.14, 191.93 -1.22 M145.03 52.53 C157 36.59, 170.59 21.92, 191.1 -0.28 M150.27 54.8 C167.14 30.94, 187.03 13.17, 195.71 1.54 M150.64 52.8 C160.83 39.84, 173.43 25.21, 195.79 0.68 M155.36 51.51 C165.18 42.78, 175.68 30.63, 201.46 1.92 M155.44 52.4 C164.52 41.23, 175.33 31.96, 202.2 -0.47 M160.02 51.46 C169.67 43.07, 181.08 27.93, 206.82 -1.43 M160.62 52.87 C170.16 41.7, 180.49 29.12, 207.07 0.31 M167.57 54.62 C177.69 41.26, 186.23 30.59, 210.24 1.86 M166.58 53.1 C176.83 40.38, 187.5 29.59, 212.49 1.04 M172.14 54.68 C184.34 39.92, 197.37 25.66, 219.49 0.56 M170.05 52.95 C188.47 31.61, 208.47 11.16, 217.51 -0.68 M175.19 53.7 C186.16 41.68, 199.04 29.39, 221.65 0.63 M175.75 52.87 C189.37 36.29, 203.08 21.38, 223.27 0 M183.51 52.98 C195.58 34.21, 211.81 20.13, 225.68 2.22 M181.47 53.54 C199.29 32.58, 216.31 12.53, 226.66 1.01 M185.02 52.46 C192.87 43.98, 202.96 36.2, 226.98 7.43 M187.07 54.24 C199.73 39.59, 212.03 25.01, 226.05 8.03 M194.13 53.76 C204.35 38.18, 217.84 26.89, 227.9 14.45 M192.86 52.71 C204.53 39.57, 215.97 25.96, 226.89 13.53 M196.95 55.21 C205.73 41.93, 219.34 28.89, 227.81 21.48 M198.04 53.06 C208.98 41.11, 218.89 27.94, 226.93 19.49 M203.15 51.29 C213.16 42.97, 221.56 31.59, 226.9 25.63 M203.63 54.09 C210.47 44.13, 218.5 33.69, 227.13 25.23 M208 55.43 C211.93 48.63, 218.53 38.26, 228.18 33.68 M207.64 52.99 C212.88 47.27, 218.95 40.01, 226.79 33.04 M212.86 54.64 C217.53 48.07, 220.75 43.07, 225.36 37.67 M212.69 52.89 C216.88 49.05, 219.68 45.52, 226.51 38.59 M218.81 53.01 C220.39 52.26, 221.22 48.44, 227.33 45.1 M218.78 52.89 C221.19 50.66, 222.89 48.55, 226.57 44.58" stroke="#40c057" stroke-width="0.5" fill="none"></path><path d="M0.95 1.19 C69.16 -1.19, 135.49 -2.77, 224.41 0.94 M0.04 -0.23 C81.09 0.34, 163.54 -0.23, 223.2 0.77 M223.9 0.72 C223.26 11.75, 223.53 21.83, 224.07 52.45 M224.24 -0.69 C224.39 12.11, 224.47 23.82, 224.54 51.94 M224.76 53.03 C164.15 52.03, 102.81 52.12, 0.64 53.03 M223.71 51.6 C161.19 49.89, 98.17 50.1, -0.65 51.17 M1.04 52.18 C-0.67 37.67, -0.07 24.03, -2 -0.7 M0.71 51.04 C0.06 39.49, 0.57 26.02, -0.5 -0.68" stroke="#000000" stroke-width="1" fill="none"></path></g><g transform="translate(550.1088005500188 281.16676330566406) rotate(0 94 21)"><text x="94" y="14" font-family="Virgil, Segoe UI Emoji" font-size="16px" fill="#000000" text-anchor="middle" style="white-space: pre;" direction="ltr"> (next bytecode in code</text><text x="94" y="35" font-family="Virgil, Segoe UI Emoji" font-size="16px" fill="#000000" text-anchor="middle" style="white-space: pre;" direction="ltr">for return)</text></g><g stroke-linecap="round"><g transform="translate(412.1088005500188 275.8334197998047) rotate(0 59.62893088121098 9.604696595875765)"><path d="M0.7 1.43 C43.96 8.29, 91.15 13.39, 118.66 18.28 M0.6 0.21 C27.67 5.29, 56.63 8.54, 118.63 18.99" stroke="#000000" stroke-width="1" fill="none"></path></g><g transform="translate(412.1088005500188 275.8334197998047) rotate(0 59.62893088121098 9.604696595875765)"><path d="M89.87 26.06 C99.49 23.41, 112.92 19.34, 118.6 18.67 M89.76 24.85 C95.54 23.97, 103.17 21.43, 118.57 19.38" stroke="#000000" stroke-width="1" fill="none"></path></g><g transform="translate(412.1088005500188 275.8334197998047) rotate(0 59.62893088121098 9.604696595875765)"><path d="M93.14 5.8 C101.42 10.8, 113.61 14.4, 118.6 18.67 M93.04 4.59 C97.99 8.55, 104.84 10.85, 118.57 19.38" stroke="#000000" stroke-width="1" fill="none"></path></g></g><mask></mask><g stroke-linecap="round" transform="translate(684.1088615851751 506.00001525878906) rotate(0 0.1666259765625 0.1666717529296875)"><path d="M0.08 0 M0.08 0 C0.12 -0.01, 0.17 0, 0.25 0 M0.08 0 C0.13 0, 0.18 0.01, 0.25 0 M0.25 0 C-0.69 0.18, 2.05 0.73, 0.33 0.08 M0.25 0 C-0.64 -0.49, -0.48 -0.87, 0.33 0.08 M0.33 0.08 C0.33 0.12, 0.33 0.19, 0.33 0.25 M0.33 0.08 C0.34 0.14, 0.34 0.2, 0.33 0.25 M0.33 0.25 C-0.54 -1.61, 1.28 -0.68, 0.25 0.33 M0.33 0.25 C1.51 0.69, 0.47 -0.62, 0.25 0.33 M0.25 0.33 C0.22 0.32, 0.17 0.32, 0.08 0.33 M0.25 0.33 C0.19 0.33, 0.14 0.34, 0.08 0.33 M0.08 0.33 C-0.07 1.61, 0.64 1.66, 0 0.25 M0.08 0.33 C-1.57 0.65, 1.66 1.26, 0 0.25 M0 0.25 C0.01 0.21, 0.02 0.18, 0 0.08 M0 0.25 C0.01 0.2, 0 0.13, 0 0.08 M0 0.08 C-2 1.75, -1.64 0.12, 0.08 0 M0 0.08 C0.5 1.29, -1.69 -1.84, 0.08 0" stroke="#000000" stroke-width="1" fill="none"></path></g><g stroke-linecap="round" transform="translate(111.10884632638601 548.0001373291016) rotate(0 178.66665649414062 15.166763305664062)"><path d="M0.28 -1.04 C113.29 -3.14, 228.85 -2.77, 357.45 1.1 M-0.23 -0.25 C119.69 0.19, 239.49 0.55, 356.97 0.02 M358.97 1.96 C357.68 13.1, 355.99 22.62, 355.42 31.3 M357.4 -0.42 C356.62 7.08, 357.82 15.48, 356.49 29.8 M356.99 30.42 C282.13 30.34, 208.71 29.69, 0.81 30.74 M357.79 30.6 C225.77 30.62, 95 31.03, 0.25 30.91 M-0.76 31.86 C1.77 19.12, -1.02 4.24, 1.72 -1.66 M-0.74 29.53 C-0.71 21.76, 0.65 12.73, 0.79 -0.68" stroke="#000000" stroke-width="1" fill="none"></path></g><g stroke-linecap="round"><g transform="translate(485.6038355580406 321.63158298054134) rotate(0 28.820838395569467 116.18954703628862)"><path d="M-1.01 -0.64 C9.44 21.5, 64.02 94.54, 63.07 133.29 C62.13 172.04, 4.89 215.49, -6.67 231.87 M0.66 1.64 C11.43 23.39, 66.59 92.91, 65.21 131.48 C63.83 170.04, 4.27 216.21, -7.59 233.02" stroke="#000000" stroke-width="1" fill="none"></path></g><g transform="translate(485.6038355580406 321.63158298054134) rotate(0 28.820838395569467 116.18954703628862)"><path d="M3.15 203.61 C1.36 214.02, -4.1 223.86, -8.65 233.95 M4.53 206.12 C-0.45 214.88, -2.98 224.38, -7.95 232.97" stroke="#000000" stroke-width="1" fill="none"></path></g><g transform="translate(485.6038355580406 321.63158298054134) rotate(0 28.820838395569467 116.18954703628862)"><path d="M18.11 217.65 C11.29 223.26, 0.84 228.42, -8.65 233.95 M19.5 220.16 C9.52 224.32, 1.99 229.12, -7.95 232.97" stroke="#000000" stroke-width="1" fill="none"></path></g></g><mask></mask><g stroke-linecap="round"><g transform="translate(121.1973232608965 314.8304810956254) rotate(0 -43.58656128135101 121.9694326971009)"><path d="M-1.18 -0.11 C-15.73 21.29, -85.2 86.63, -86.87 127.34 C-88.54 168.06, -23.86 224.59, -11.18 244.19 M0.4 -1.22 C-14.3 20.47, -85.43 87.73, -87.53 128.8 C-89.62 169.86, -24.97 225.61, -12.15 245.16" stroke="#000000" stroke-width="1" fill="none"></path></g><g transform="translate(121.1973232608965 314.8304810956254) rotate(0 -43.58656128135101 121.9694326971009)"><path d="M-38.49 231.38 C-29.85 235.07, -21.84 240.62, -11.97 243.31 M-37.37 230.35 C-28.02 235.66, -20.17 241.22, -12.27 245.57" stroke="#000000" stroke-width="1" fill="none"></path></g><g transform="translate(121.1973232608965 314.8304810956254) rotate(0 -43.58656128135101 121.9694326971009)"><path d="M-22.92 218.01 C-19.67 226.07, -16.93 236.14, -11.97 243.31 M-21.81 216.98 C-17.96 227.12, -15.67 237.45, -12.27 245.57" stroke="#000000" stroke-width="1" fill="none"></path></g></g><mask></mask><g stroke-linecap="round" transform="translate(111.77553333810476 550.3333587646484) rotate(0 103.6666259765625 12.666671752929688)"><path d="M1.69 1.47 C1.69 1.47, 1.69 1.47, 1.69 1.47 M1.69 1.47 C1.69 1.47, 1.69 1.47, 1.69 1.47 M3.39 5.6 C4.22 3.95, 6.2 2.9, 7.33 1.07 M3.39 5.6 C4.35 4.59, 5.6 3.28, 7.33 1.07 M3.13 12 C7.43 8.58, 10.46 4.14, 12.97 0.68 M3.13 12 C5.57 9.53, 8.85 5.42, 12.97 0.68 M1.56 19.9 C6.13 16.39, 10.89 8.05, 17.96 1.04 M1.56 19.9 C6.52 14.24, 10.88 8.65, 17.96 1.04 M2.61 24.79 C8.84 16.06, 15.32 9.7, 23.6 0.64 M2.61 24.79 C10.27 15.29, 18.59 6.14, 23.6 0.64 M6.94 25.91 C10.05 18.63, 16.22 12.82, 28.59 1 M6.94 25.91 C15.35 16.79, 22.89 8.33, 28.59 1 M12.58 25.51 C20.07 16.67, 25.17 12.21, 34.23 0.61 M12.58 25.51 C18.78 17.69, 25.27 10.34, 34.23 0.61 M17.57 25.87 C24.14 18.5, 31.44 12.81, 39.22 0.97 M17.57 25.87 C25.89 15.73, 35.51 5.98, 39.22 0.97 M22.56 26.23 C29.31 20.54, 34.75 13.02, 44.21 1.33 M22.56 26.23 C29.01 20.48, 33.16 12.82, 44.21 1.33 M28.2 25.84 C38.87 15.46, 45.85 7.47, 49.85 0.93 M28.2 25.84 C34.37 20.57, 38.83 14.23, 49.85 0.93 M33.19 26.2 C41.94 17.44, 47.47 6.39, 54.84 1.29 M33.19 26.2 C38.12 21.07, 43.97 13.14, 54.84 1.29 M38.83 25.8 C47.09 18.35, 55.46 9.7, 60.48 0.9 M38.83 25.8 C46.42 18.49, 51.85 10.12, 60.48 0.9 M43.82 26.16 C49.32 18.07, 56.84 12.49, 65.47 1.26 M43.82 26.16 C48.06 19.89, 53.19 14.86, 65.47 1.26 M49.46 25.77 C56.47 17.9, 63.36 9.26, 71.11 0.86 M49.46 25.77 C54.94 18.42, 61.87 11.83, 71.11 0.86 M54.45 26.13 C60.74 17.55, 70.12 10.13, 76.1 1.22 M54.45 26.13 C60.78 17.9, 67.67 10.25, 76.1 1.22 M60.09 25.73 C66.25 21.01, 69.95 14.5, 81.74 0.83 M60.09 25.73 C66.71 19.43, 70.8 11.67, 81.74 0.83 M65.08 26.09 C74.2 17.04, 79.29 9.82, 86.73 1.19 M65.08 26.09 C71.96 17.44, 78.56 9.61, 86.73 1.19 M70.72 25.7 C75.65 19.18, 83.53 10.33, 92.37 0.79 M70.72 25.7 C78.57 16.75, 86.96 5.49, 92.37 0.79 M75.71 26.06 C82.81 16.37, 90.61 8.96, 97.36 1.15 M75.71 26.06 C81.96 19.82, 87.35 13.43, 97.36 1.15 M81.35 25.67 C85.65 20.17, 91.56 13.33, 103 0.76 M81.35 25.67 C86.13 19.48, 90.52 15.94, 103 0.76 M86.34 26.03 C93.55 17.17, 100.83 10.43, 107.99 1.12 M86.34 26.03 C92.49 17.36, 100.16 9.88, 107.99 1.12 M91.98 25.63 C96.54 19.39, 101.07 14.72, 113.63 0.73 M91.98 25.63 C99.2 15.97, 107.84 7.41, 113.63 0.73 M96.97 25.99 C101.5 18.47, 110.01 14.7, 118.62 1.09 M96.97 25.99 C104.95 18.74, 111.45 9.64, 118.62 1.09 M102.61 25.6 C110.01 15.4, 118.57 10.31, 124.26 0.69 M102.61 25.6 C106.83 19.86, 112.65 13.41, 124.26 0.69 M107.6 25.96 C114.43 16.54, 123.9 6.23, 129.25 1.05 M107.6 25.96 C115.47 17.92, 121.99 8.41, 129.25 1.05 M113.24 25.56 C119.25 16.57, 128.98 8.63, 134.89 0.66 M113.24 25.56 C121.35 17.12, 127.88 8.33, 134.89 0.66 M118.23 25.92 C123.43 17.4, 129.35 11.32, 139.88 1.02 M118.23 25.92 C122.82 19.1, 127.89 14.23, 139.88 1.02 M123.87 25.53 C131 18.24, 137.53 8.64, 145.52 0.62 M123.87 25.53 C130.42 17.51, 138.65 10.15, 145.52 0.62 M128.86 25.89 C133.73 20.51, 141.41 13.51, 150.51 0.98 M128.86 25.89 C133.36 20.07, 138.72 15.49, 150.51 0.98 M133.84 26.25 C139.37 20.27, 144.21 11.58, 156.15 0.59 M133.84 26.25 C142.59 16.11, 150.12 7.43, 156.15 0.59 M139.49 25.85 C146.06 17.12, 153.07 6.28, 161.14 0.95 M139.49 25.85 C146.57 18.85, 153.9 8.94, 161.14 0.95 M144.47 26.21 C147.95 21.38, 152.26 14.79, 166.12 1.31 M144.47 26.21 C149.93 20.66, 153.49 14.36, 166.12 1.31 M150.12 25.82 C158.13 18.12, 166.7 7.43, 171.77 0.91 M150.12 25.82 C157.04 16.68, 164.82 10.23, 171.77 0.91 M155.1 26.18 C161.09 19.95, 166.24 15.03, 176.75 1.27 M155.1 26.18 C161.59 19.11, 167.76 12.15, 176.75 1.27 M160.75 25.78 C168.15 17.93, 176.58 9.51, 182.4 0.88 M160.75 25.78 C165.64 21.25, 170.54 15.65, 182.4 0.88 M165.73 26.14 C170.64 20.7, 179.32 10.61, 187.38 1.24 M165.73 26.14 C174.13 16.36, 181.53 6.99, 187.38 1.24 M171.38 25.75 C177.82 18.2, 184.88 12.99, 193.03 0.84 M171.38 25.75 C178.84 17.25, 185.58 9.2, 193.03 0.84 M176.36 26.11 C185.15 18.18, 193.41 9.44, 198.01 1.2 M176.36 26.11 C184.94 18.06, 192.75 8.94, 198.01 1.2 M182.01 25.72 C186.6 18.07, 194.82 11.25, 203 1.56 M182.01 25.72 C186.1 20.85, 191.03 15.64, 203 1.56 M186.99 26.08 C193.57 22.13, 195.97 14.39, 207.33 2.68 M186.99 26.08 C194 17.91, 199.97 9.59, 207.33 2.68 M192.64 25.68 C200.63 20.49, 203.69 11.22, 209.7 6.06 M192.64 25.68 C196.59 21.03, 199.75 15.84, 209.7 6.06 M197.62 26.04 C200.55 23.21, 205.72 19.65, 210.09 11.7 M197.62 26.04 C200.87 21.83, 204.65 17.88, 210.09 11.7 M202.61 26.4 C204.11 25.23, 204.55 24.02, 208.52 19.61 M202.61 26.4 C203.74 25.06, 205.9 23.06, 208.52 19.61" stroke="#868e96" stroke-width="0.5" fill="none"></path><path d="M6.33 0 M6.33 0 C47.95 -3.03, 87.49 -2.28, 201 0 M6.33 0 C56.65 -0.1, 105.86 0.22, 201 0 M201 0 C204.35 1.66, 208.71 0.8, 207.33 6.33 M201 0 C206.31 0.69, 207.43 3.94, 207.33 6.33 M207.33 6.33 C207.14 10.89, 208.12 12.88, 207.33 19 M207.33 6.33 C207.29 8.37, 207.42 11.89, 207.33 19 M207.33 19 C205.53 21.35, 206.1 24.05, 201 25.33 M207.33 19 C207.57 23.77, 205.02 23.89, 201 25.33 M201 25.33 C125.8 24.12, 50.17 25.28, 6.33 25.33 M201 25.33 C141.34 27.24, 80.09 25.84, 6.33 25.33 M6.33 25.33 C2.95 26.5, 0.26 22.15, 0 19 M6.33 25.33 C-0.17 26.05, -1.18 23.1, 0 19 M0 19 C0.95 14.31, 0.56 11.24, 0 6.33 M0 19 C0.46 15.15, -0.24 12.45, 0 6.33 M0 6.33 C-1.68 2.04, 2.76 -1.11, 6.33 0 M0 6.33 C1.55 -0.13, 2.42 0.68, 6.33 0" stroke="#000000" stroke-width="1" fill="none"></path></g><g stroke-linecap="round"><g transform="translate(345.0038647867432 566.4139978442862) rotate(0 23.380680531078212 -0.8521640938315045)"><path d="M0.33 0.67 C8.35 0.43, 40.15 -0.27, 47.72 -0.42 M-0.96 -0.03 C7.02 -0.12, 39.09 -1.98, 47.27 -2.37" stroke="#000000" stroke-width="1" fill="none"></path></g><g transform="translate(345.0038647867432 566.4139978442862) rotate(0 23.380680531078212 -0.8521640938315045)"><path d="M47.06 -3.14 L34.56 5.07 L34.94 -8.42 L48.54 -3.13" stroke="none" stroke-width="0" fill="#000000" fill-rule="evenodd"></path><path d="M48.11 -1.19 C44.22 -1.73, 40.89 2.2, 33.93 5.32 M47.08 -1.77 C44 -0.89, 39.71 0.96, 33.32 4.71 M34.02 4.92 C33.74 0.14, 33.48 -5.2, 33.4 -7.39 M33.86 4.15 C34.36 0.13, 33.55 -5.79, 33.26 -8.42 M33.52 -9.48 C36.55 -7.3, 42.06 -5.44, 48.17 -3.62 M33.49 -7.85 C36.5 -7.02, 40.29 -5.09, 46.82 -2.55 M47.27 -2.37 C47.27 -2.37, 47.27 -2.37, 47.27 -2.37 M47.27 -2.37 C47.27 -2.37, 47.27 -2.37, 47.27 -2.37" stroke="#000000" stroke-width="1" fill="none"></path></g></g><mask></mask><g transform="translate(305.7754417853704 300.83335876464844) rotate(0 87 10)"><text x="0" y="14" font-family="Virgil, Segoe UI Emoji" font-size="16px" fill="#000000" text-anchor="start" style="white-space: pre;" direction="ltr">opnd_stack_boundary</text></g><g stroke-linecap="round" transform="translate(305.44212879708914 296.0000305175781) rotate(0 92.16668701171875 15.166664123535156)"><path d="M-0.55 0.06 C57.18 -1.04, 115.16 0.36, 183.02 1.48 M-0.3 0.16 C70.18 1.82, 138.85 1.2, 185.15 -0.93 M183.44 -1.42 C184.41 11.56, 185.92 20.6, 183.21 31.1 M184.86 -0.69 C184.32 6.55, 183.98 14.7, 184.14 31.24 M183.85 31 C135.29 29.09, 90.57 32.47, -1.06 31.59 M184.94 30.76 C141.45 30.35, 97.05 29.95, -0.7 30.56 M1.93 31.12 C-1.69 19.74, -0.47 12.94, -1.07 0.32 M0.09 31.03 C0.9 23.18, -0.3 15.12, 0.4 0.17" stroke="#000000" stroke-width="1" fill="none"></path></g><g stroke-linecap="round"><g transform="translate(463.7754417853704 346.6667022705078) rotate(0 -62.7833865269867 106.51490161110905)"><path d="M-1 0.86 C-0.86 25.23, 24.19 110.19, 1.32 145.35 C-21.55 180.52, -115.02 200.75, -138.22 211.85 M0.68 0.26 C1.14 24.33, 26.75 108, 3.5 143.42 C-19.74 178.83, -115.35 201.22, -138.81 212.77" stroke="#000000" stroke-width="1" fill="none"></path></g><g transform="translate(463.7754417853704 346.6667022705078) rotate(0 -62.7833865269867 106.51490161110905)"><path d="M-114.42 191.79 C-123.18 200.38, -132.82 207.5, -139.87 213.44 M-114.96 193.6 C-125.29 200.93, -131.86 208.44, -139.47 213.12" stroke="#000000" stroke-width="1" fill="none"></path></g><g transform="translate(463.7754417853704 346.6667022705078) rotate(0 -62.7833865269867 106.51490161110905)"><path d="M-107.39 211.07 C-118.39 213.07, -130.41 213.65, -139.87 213.44 M-107.93 212.88 C-120.69 213.23, -129.84 213.71, -139.47 213.12" stroke="#000000" stroke-width="1" fill="none"></path></g></g><mask></mask><g stroke-linecap="round" transform="translate(451.10875477365164 338.33335876464844) rotate(0 7.5 7.5)"><path d="M0.31 8.22 C0.31 8.22, 0.31 8.22, 0.31 8.22 M0.31 8.22 C0.31 8.22, 0.31 8.22, 0.31 8.22 M3.33 10.84 C4.88 9.18, 6.99 5.86, 10.54 2.54 M3.33 10.84 C5.14 8.72, 6.41 7.05, 10.54 2.54 M6.35 13.47 C7.77 10.41, 10.93 8.21, 12.91 5.92 M6.35 13.47 C8.17 11.04, 10.56 8.42, 12.91 5.92" stroke="#be4bdb" stroke-width="0.5" fill="none"></path><path d="M10 2 M10 2 C10.6 3.11, 11.08 4.02, 13 6 M10 2 C11.02 3, 11.92 4.2, 13 6 M13 6 C15.14 6.79, 16.42 9.21, 13 10 M13 6 C13.61 8.85, 14.19 5.8, 13 10 M13 10 C12.44 11.02, 11.25 11.48, 10 13 M13 10 C11.87 10.8, 11.26 11.8, 10 13 M10 13 C6.3 16.29, 6.67 15.7, 6 13 M10 13 C9.55 15.12, 8.33 14.2, 6 13 M6 13 C5.46 11.78, 3.78 11.82, 2 10 M6 13 C5.1 12.54, 4.4 11.79, 2 10 M2 10 C1.47 8.31, 0.17 7.11, 2 6 M2 10 C1.32 7.7, -1.84 6.73, 2 6 M2 6 C3.47 4.49, 4.59 2.95, 6 2 M2 6 C3.71 4.8, 4.79 3.35, 6 2 M6 2 C7.68 -0.77, 6.14 1.9, 10 2 M6 2 C7.54 1.27, 9.52 -2, 10 2" stroke="#000000" stroke-width="1" fill="none"></path></g><g transform="translate(314.10875477365164 373.00001525878906) rotate(0 88 10)"><text x="0" y="14" font-family="Virgil, Segoe UI Emoji" font-size="16px" fill="#000000" text-anchor="start" style="white-space: pre;" direction="ltr">label_stack_boundary</text></g><g stroke-linecap="round" transform="translate(311.7754417853704 367.0000457763672) rotate(0 90.5 14.833328247070312)"><path d="M-2 -1.9 C60.92 -0.37, 125.49 2.23, 182.49 0.76 M0.05 0.5 C70.78 1.3, 143.94 1, 180.5 0.62 M181.95 1.2 C180.09 9.27, 181.8 20.47, 181.81 28.15 M181.64 0.98 C179.92 7.05, 180.83 12.31, 180.39 28.97 M181.9 28.81 C120.84 31.45, 61.66 30.91, -1.64 28.53 M181.18 29.61 C117.42 31.09, 53.54 31.66, -0.91 28.76 M0.12 29.52 C0.52 20.67, 0.94 11.25, 1.32 -1.28 M0.7 28.85 C-0.68 18.15, -0.65 6.84, -0.97 0.7" stroke="#000000" stroke-width="1" fill="none"></path></g><g stroke-linecap="round" transform="translate(114.10880055001883 592.6667938232422) rotate(0 178.33331298828125 15.666702270507812)"><path d="M0.65 -0.08 C112.13 1.13, 223.36 0.7, 355.46 0.95 M-0.2 0.38 C106.39 -0.94, 213.14 -1.07, 356.28 -0.14 M358.52 0.39 C356.12 14.38, 356.58 24.44, 358.52 31.21 M357.32 0.84 C357.47 8.1, 356.09 15.45, 356.61 30.36 M356.64 32.35 C241.29 31.58, 127.39 32.99, -0.36 30.74 M356.92 31.67 C228.56 30.96, 100.86 30.65, 0.12 31.91 M0.49 32.03 C-1.86 21.26, 1.24 14.08, 0.88 -0.69 M0.03 32.1 C0.57 24.14, 0.13 15.29, 0.74 -0.61" stroke="#000000" stroke-width="1" fill="none"></path></g><g stroke-linecap="round" transform="translate(117.44208302072195 592.3334808349609) rotate(0 125.16664123535156 13.333282470703125)"><path d="M1.77 1.54 C1.77 1.54, 1.77 1.54, 1.77 1.54 M1.77 1.54 C1.77 1.54, 1.77 1.54, 1.77 1.54 M2.83 6.43 C4.44 4.61, 5.73 2.46, 7.42 1.15 M2.83 6.43 C4.94 4.41, 6.31 2.59, 7.42 1.15 M3.22 12.07 C5.96 8.04, 8.44 5.32, 13.06 0.75 M3.22 12.07 C6.86 7.48, 10.04 3.66, 13.06 0.75 M0.99 20.74 C5.16 16.78, 9.46 11.72, 18.05 1.11 M0.99 20.74 C5.01 15.21, 10.19 10.12, 18.05 1.11 M2.04 25.62 C8.62 17.29, 16.6 8.94, 23.69 0.72 M2.04 25.62 C9.66 17.97, 15.86 10.14, 23.69 0.72 M6.37 26.74 C11.52 21.76, 15.77 14.37, 28.68 1.08 M6.37 26.74 C15.84 17.69, 24.6 7.38, 28.68 1.08 M9.39 29.36 C15.38 22, 23.64 9.18, 34.32 0.68 M9.39 29.36 C16.99 22, 22.81 13.2, 34.32 0.68 M15.03 28.97 C23.42 20.56, 32.71 8.59, 39.31 1.04 M15.03 28.97 C21.96 20.41, 30.83 11.45, 39.31 1.04 M20.02 29.33 C30.3 17.97, 39.88 6.04, 44.95 0.65 M20.02 29.33 C27.6 19.55, 35.57 10.75, 44.95 0.65 M25.66 28.93 C33.19 20.26, 41.96 7.49, 49.94 1.01 M25.66 28.93 C31.16 22.13, 39.03 14.79, 49.94 1.01 M30.65 29.29 C40.77 19.63, 49.74 8.06, 55.58 0.62 M30.65 29.29 C36 23.04, 42.04 17.15, 55.58 0.62 M36.29 28.9 C44.82 19.09, 48.82 14.66, 60.57 0.98 M36.29 28.9 C42.95 21.46, 49.17 13.71, 60.57 0.98 M41.28 29.26 C48.81 19.59, 57.83 11.94, 66.21 0.58 M41.28 29.26 C49.31 20.55, 56.66 10.45, 66.21 0.58 M46.92 28.87 C53.32 21.45, 58.43 18.82, 71.2 0.94 M46.92 28.87 C54.8 20.18, 62.89 12.68, 71.2 0.94 M51.91 29.23 C63.16 17.59, 72.5 7.61, 76.84 0.55 M51.91 29.23 C59.84 20.5, 67.73 13.06, 76.84 0.55 M57.55 28.83 C61.94 21.26, 70.95 15.36, 81.83 0.91 M57.55 28.83 C62.79 23.08, 67.24 16.61, 81.83 0.91 M62.54 29.19 C67.14 21.64, 75.32 13.09, 87.47 0.51 M62.54 29.19 C72.24 19.09, 78.89 9.98, 87.47 0.51 M67.53 29.55 C74.14 21.36, 83.36 8.41, 92.46 0.87 M67.53 29.55 C75.56 19.73, 83.13 10.32, 92.46 0.87 M73.17 29.16 C81 18.93, 88.53 10.75, 97.45 1.23 M73.17 29.16 C82.97 19.63, 91.94 8.21, 97.45 1.23 M78.16 29.52 C85.46 22.21, 90 15.29, 103.09 0.84 M78.16 29.52 C85.06 22.48, 90.33 14.37, 103.09 0.84 M83.8 29.12 C89.62 24.77, 93.38 15.73, 108.08 1.2 M83.8 29.12 C89.49 22.51, 96.56 14.88, 108.08 1.2 M88.79 29.48 C96.95 18.85, 106.44 10.25, 113.72 0.8 M88.79 29.48 C94.56 21.23, 102.6 13.75, 113.72 0.8 M94.43 29.09 C100.88 22.06, 109.15 12.8, 118.71 1.16 M94.43 29.09 C103.39 18.71, 114.07 6.55, 118.71 1.16 M99.42 29.45 C109.53 20.17, 116.82 10.25, 124.35 0.77 M99.42 29.45 C107.91 19.08, 118.01 8.01, 124.35 0.77 M105.06 29.05 C108.46 22.81, 115.23 16.56, 129.34 1.13 M105.06 29.05 C112.42 19.23, 120.83 11.86, 129.34 1.13 M110.05 29.41 C115.99 19.92, 122.45 15.46, 134.98 0.73 M110.05 29.41 C120.24 18.81, 128.21 6.64, 134.98 0.73 M115.69 29.02 C121.46 22.6, 129.92 14.69, 139.97 1.09 M115.69 29.02 C122.58 20.78, 128.54 13.6, 139.97 1.09 M120.68 29.38 C127.48 20.55, 130.78 14.25, 145.61 0.7 M120.68 29.38 C128.42 20.97, 134.41 14.63, 145.61 0.7 M126.32 28.98 C131.41 19.3, 140.95 12.5, 150.6 1.06 M126.32 28.98 C132.7 22.12, 138.95 14.16, 150.6 1.06 M131.31 29.34 C138.02 19.1, 144.45 13.69, 156.24 0.67 M131.31 29.34 C137.46 22.86, 144.26 14.49, 156.24 0.67 M136.95 28.95 C143.29 24.06, 146.41 14.84, 161.23 1.03 M136.95 28.95 C145.52 18.93, 156.23 6.06, 161.23 1.03 M141.94 29.31 C150.58 20.33, 156.85 11.48, 166.87 0.63 M141.94 29.31 C148.12 22.01, 153 16.2, 166.87 0.63 M147.58 28.91 C154.28 23.5, 158.99 15.04, 171.86 0.99 M147.58 28.91 C156.63 18.6, 165.78 8.63, 171.86 0.99 M152.57 29.28 C159.83 21.08, 167.39 14.07, 177.5 0.6 M152.57 29.28 C161.57 18.18, 170.58 6.72, 177.5 0.6 M158.21 28.88 C166.37 20.21, 171.42 11.83, 182.49 0.96 M158.21 28.88 C166.15 18.68, 173.72 9.45, 182.49 0.96 M163.2 29.24 C167.12 24.9, 175.96 17.56, 188.13 0.56 M163.2 29.24 C171.76 17.14, 182.6 5.95, 188.13 0.56 M168.84 28.85 C177.46 19.76, 181.89 13.51, 193.12 0.92 M168.84 28.85 C175 22.36, 180.25 15.24, 193.12 0.92 M173.83 29.21 C180.93 19.46, 187.85 10.77, 198.76 0.53 M173.83 29.21 C179.33 23.84, 183.64 17.8, 198.76 0.53 M179.47 28.81 C186.6 20.67, 189.78 17.17, 203.75 0.89 M179.47 28.81 C186.33 19.14, 195.13 10.68, 203.75 0.89 M184.46 29.17 C193.13 18.83, 200.59 9.66, 209.39 0.49 M184.46 29.17 C191.52 20.6, 198.66 13.76, 209.39 0.49 M189.45 29.53 C196.87 17.74, 206.07 7.34, 214.38 0.85 M189.45 29.53 C193.88 24.39, 200.35 18.88, 214.38 0.85 M195.09 29.14 C201.92 18.98, 212.1 8.95, 219.36 1.21 M195.09 29.14 C202.8 21.81, 209.05 13.09, 219.36 1.21 M200.08 29.5 C207.99 23.17, 214.16 13.02, 225.01 0.82 M200.08 29.5 C210.16 18.1, 218.35 8.75, 225.01 0.82 M205.72 29.1 C212.91 20.25, 218.24 13.82, 229.99 1.18 M205.72 29.1 C212.7 20.79, 220.6 13.32, 229.99 1.18 M210.71 29.46 C216.16 24.58, 223.85 17.87, 235.64 0.78 M210.71 29.46 C218.28 20.42, 225.97 11.22, 235.64 0.78 M216.35 29.07 C224.87 22.5, 229.53 14.59, 240.62 1.14 M216.35 29.07 C222.98 19.45, 232.1 11.8, 240.62 1.14 M221.34 29.43 C231.16 18.41, 241.19 8.4, 245.61 1.5 M221.34 29.43 C229.77 19.19, 240.55 7.66, 245.61 1.5 M226.98 29.03 C232.7 23.08, 242.13 14.3, 249.29 3.37 M226.98 29.03 C234.78 19.88, 243.96 10.06, 249.29 3.37 M231.97 29.39 C239.33 22, 247.59 10.96, 252.3 6 M231.97 29.39 C238.34 22.14, 246.11 13.15, 252.3 6 M237.61 29 C239.08 23.91, 244.75 20.14, 252.7 11.64 M237.61 29 C242.12 23.32, 246.22 18.67, 252.7 11.64 M244.56 27.1 C246.63 24.8, 248.86 22.07, 250.47 20.3 M244.56 27.1 C245.34 25.83, 246.62 24.28, 250.47 20.3" stroke="#868e96" stroke-width="0.5" fill="none"></path><path d="M6.67 0 M6.67 0 C72.37 0.56, 134.79 1.19, 243.67 0 M6.67 0 C59.92 1.29, 112.25 1.55, 243.67 0 M243.67 0 C248.74 -0.33, 249.18 1.85, 250.33 6.67 M243.67 0 C248.48 -1.84, 251.77 0.04, 250.33 6.67 M250.33 6.67 C250.82 10.8, 250.21 13.93, 250.33 20 M250.33 6.67 C250.01 10.95, 250.01 14.45, 250.33 20 M250.33 20 C250.94 23.15, 246.6 26.74, 243.67 26.67 M250.33 20 C248.06 25.32, 246.65 27.92, 243.67 26.67 M243.67 26.67 C192.46 25.25, 140.44 24.27, 6.67 26.67 M243.67 26.67 C162.22 28.75, 82.18 28.68, 6.67 26.67 M6.67 26.67 C2.2 26.55, 0.11 23.54, 0 20 M6.67 26.67 C4.49 24.7, -2.06 23.49, 0 20 M0 20 C-1.15 16.59, 1.04 14.13, 0 6.67 M0 20 C0.56 16.13, 0.1 12.4, 0 6.67 M0 6.67 C-0.79 0.44, 2.69 -1.32, 6.67 0 M0 6.67 C-0.97 3.37, 3.25 1.66, 6.67 0" stroke="#000000" stroke-width="1" fill="none"></path></g><g transform="translate(171.10870899728445 597.3336639404297) rotate(0 54 10)"><text x="0" y="14" font-family="Virgil, Segoe UI Emoji" font-size="16px" fill="#000000" text-anchor="start" style="white-space: pre;" direction="ltr">&lt;lable stack&gt;</text></g><g stroke-linecap="round" transform="translate(113.10875477365164 307.0000305175781) rotate(0 6.833343505859375 4.5)"><path d="M-0.15 5.17 C-0.15 5.17, -0.15 5.17, -0.15 5.17 M-0.15 5.17 C-0.15 5.17, -0.15 5.17, -0.15 5.17 M4.29 6.35 C4.57 5.89, 5.99 5.22, 8.5 0.82 M3.92 6.85 C5.6 5.06, 6.77 3.09, 8.92 0.85 M6.94 9.19 C8.15 7.45, 9.59 5.65, 11.35 3.44 M7.47 9.07 C8.88 7.31, 10.24 5.2, 11.66 3.49" stroke="#12b886" stroke-width="0.5" fill="none"></path><path d="M7.77 -0.39 C9.78 2.14, 11.26 3.68, 14.38 4.98 M6.82 -0.07 C9.26 1.13, 11.15 2.65, 13.77 4.93 M13.46 4.88 C11.59 6.59, 10.06 6.52, 7.24 8.51 M13.86 5.22 C11.9 5.69, 10.52 7.04, 7.05 8.92 M7.47 8.35 C6.1 7.58, 4.61 7.38, -0.14 5.45 M7.1 9.26 C5.16 7.86, 3.8 7.48, -0.38 5.03 M0.34 5.02 C3.1 3.67, 3.8 1.57, 6.35 -0.05 M-0.06 5.26 C2.35 3.04, 4.2 1.54, 6.97 0.28" stroke="#000000" stroke-width="1" fill="none"></path></g><g stroke-linecap="round" transform="translate(472.60878529122976 318.16668701171875) rotate(0 6.833343505859375 4.5)"><path d="M-0.15 5.17 C-0.15 5.17, -0.15 5.17, -0.15 5.17 M-0.15 5.17 C-0.15 5.17, -0.15 5.17, -0.15 5.17 M4 6.75 C5.22 5, 6.41 3.52, 8.65 0.49 M3.75 7.34 C5.14 5.65, 6.5 3.89, 8.39 0.85 M7.3 9.31 C8.89 7.6, 9.87 5.54, 11.6 3.53 M7.26 9.04 C9.03 7.08, 10.33 5.16, 11.8 3.57" stroke="#12b886" stroke-width="0.5" fill="none"></path><path d="M7.75 -0.23 C8.73 0.92, 11.4 2.35, 13.26 5.26 M6.79 0.21 C8.78 0.79, 9.96 2.05, 14.02 5.05 M13.93 5.46 C11.16 6.81, 9.41 8.02, 7.17 8.86 M13.7 5.1 C11.52 6.36, 8.72 8.09, 7.38 8.63 M6.44 9.32 C4.86 8.49, 2.89 5.84, -0.3 4.39 M6.92 8.94 C5.17 8.03, 2.48 6.55, -0.35 4.98 M-0.27 5.79 C2.5 3.8, 5.44 0.84, 7.45 0.24 M0.37 5.31 C2.17 4.08, 3.91 2.34, 7.42 -0.14" stroke="#000000" stroke-width="1" fill="none"></path></g><g stroke-linecap="round"><g transform="translate(117.77544178537039 384.3333282470703) rotate(0 -47.40232942563995 114.14301731469715)"><path d="M1.17 0.29 C-14.9 20.04, -94.36 80.67, -95.95 118.56 C-97.53 156.44, -23.12 209.35, -8.34 227.61 M0.32 -0.6 C-15.42 19.31, -92.69 81.61, -93.73 119.86 C-94.78 158.11, -20.38 210.62, -5.92 228.89" stroke="#000000" stroke-width="1" fill="none"></path></g><g transform="translate(117.77544178537039 384.3333282470703) rotate(0 -47.40232942563995 114.14301731469715)"><path d="M-32.92 215.27 C-24.8 219.17, -14.83 224.97, -5.19 228.51 M-34.38 216.56 C-26.36 220.09, -17.02 224.2, -5.84 228.58" stroke="#000000" stroke-width="1" fill="none"></path></g><g transform="translate(117.77544178537039 384.3333282470703) rotate(0 -47.40232942563995 114.14301731469715)"><path d="M-18.75 200.42 C-15.44 209.51, -10.29 220.35, -5.19 228.51 M-20.21 201.71 C-16.14 209.54, -10.83 217.87, -5.84 228.58" stroke="#000000" stroke-width="1" fill="none"></path></g></g><mask></mask><g stroke-linecap="round"><g transform="translate(477.7754417853704 386.99998474121094) rotate(0 24.66835923900436 109.0772827608507)"><path d="M1.17 0.68 C9.98 26.35, 53.27 118.23, 52.58 154.23 C51.89 190.23, 6.33 206.52, -2.98 216.68 M0.32 -0.01 C9.08 25.29, 52.7 116.04, 52.11 152.4 C51.51 188.76, 5.89 207.62, -3.25 218.17" stroke="#000000" stroke-width="1" fill="none"></path></g><g transform="translate(477.7754417853704 386.99998474121094) rotate(0 24.66835923900436 109.0772827608507)"><path d="M14.2 194.51 C9.58 201.62, 4.71 208, -5.19 217.41 M13.21 193.57 C9.27 199.81, 4.73 205.36, -3.52 218.03" stroke="#000000" stroke-width="1" fill="none"></path></g><g transform="translate(477.7754417853704 386.99998474121094) rotate(0 24.66835923900436 109.0772827608507)"><path d="M26.56 210.89 C18.53 213.63, 10.28 215.53, -5.19 217.41 M25.58 209.94 C18.56 212.03, 10.8 213.33, -3.52 218.03" stroke="#000000" stroke-width="1" fill="none"></path></g></g><mask></mask><g stroke-linecap="round"><g transform="translate(424.44212879708914 420.3333282470703) rotate(0 -25.912683184715945 90.17566115549539)"><path d="M-0.36 0.99 C-0.39 20.35, 10.03 87.04, 0.66 116.7 C-8.71 146.35, -47.27 168.51, -56.56 178.9 M1.66 0.46 C1.48 19.89, 9.56 87.82, 0.24 117.72 C-9.09 147.63, -45.12 169.53, -54.28 179.89" stroke="#000000" stroke-width="1" fill="none"></path></g><g transform="translate(424.44212879708914 420.3333282470703) rotate(0 -25.912683184715945 90.17566115549539)"><path d="M-38.22 155.23 C-46.7 161.34, -51.45 173.49, -55.05 181.2 M-39.32 153.96 C-43.83 160.07, -47.15 167.85, -53.37 178.89" stroke="#000000" stroke-width="1" fill="none"></path></g><g transform="translate(424.44212879708914 420.3333282470703) rotate(0 -25.912683184715945 90.17566115549539)"><path d="M-24.68 170.65 C-38.24 171.01, -48 177.45, -55.05 181.2 M-25.77 169.38 C-33.74 171.54, -40.64 175.24, -53.37 178.89" stroke="#000000" stroke-width="1" fill="none"></path></g></g><mask></mask><g stroke-linecap="round" transform="translate(114.60875477365164 377.49998474121094) rotate(0 7.5 7.5)"><path d="M0.31 8.22 C0.31 8.22, 0.31 8.22, 0.31 8.22 M0.31 8.22 C0.31 8.22, 0.31 8.22, 0.31 8.22 M3.33 10.84 C6.55 8.42, 7.66 4.91, 10.54 2.54 M3.33 10.84 C5.28 8.75, 6.92 7.69, 10.54 2.54 M6.35 13.47 C7.67 12.5, 9.67 10.21, 12.91 5.92 M6.35 13.47 C8.16 11.11, 9.36 9.06, 12.91 5.92" stroke="#be4bdb" stroke-width="0.5" fill="none"></path><path d="M10 2 M10 2 C11.2 3.33, 11.78 3.83, 13 6 M10 2 C10.87 2.81, 11.26 3.75, 13 6 M13 6 C14.65 9.05, 13.11 6.55, 13 10 M13 6 C16.67 7.31, 16.57 5.9, 13 10 M13 10 C12.51 10.97, 11.28 11.18, 10 13 M13 10 C12.49 10.58, 11.66 11.56, 10 13 M10 13 C8.6 14.58, 9.94 16.27, 6 13 M10 13 C6.41 15.57, 5.94 17.18, 6 13 M6 13 C4.69 11.88, 3.72 10.61, 2 10 M6 13 C4.55 11.97, 2.95 10.57, 2 10 M2 10 C1.44 9.41, -1.66 6.8, 2 6 M2 10 C2 7.81, 0.34 9.21, 2 6 M2 6 C3.26 4.19, 4.37 3.68, 6 2 M2 6 C3.03 4.79, 4.44 3.75, 6 2 M6 2 C8.69 0.95, 8.96 -1.4, 10 2 M6 2 C6.48 -0.12, 6.58 1.23, 10 2" stroke="#000000" stroke-width="1" fill="none"></path></g><g stroke-linecap="round" transform="translate(415.60875477365164 409.49998474121094) rotate(0 7.5 7.5)"><path d="M0.31 8.22 C0.31 8.22, 0.31 8.22, 0.31 8.22 M0.31 8.22 C0.31 8.22, 0.31 8.22, 0.31 8.22 M3.33 10.84 C5.96 7.8, 7.5 4.3, 10.54 2.54 M3.33 10.84 C5.78 8.11, 9.27 4.32, 10.54 2.54 M6.35 13.47 C8.84 11.74, 10.01 9.28, 12.91 5.92 M6.35 13.47 C7.75 10.96, 9.47 9.24, 12.91 5.92" stroke="#be4bdb" stroke-width="0.5" fill="none"></path><path d="M10 2 M10 2 C11.26 3.52, 11.73 4.55, 13 6 M10 2 C11.05 3.4, 12.25 5.11, 13 6 M13 6 C16.05 6.11, 13.55 9.45, 13 10 M13 6 C14.31 9.57, 12.9 6.24, 13 10 M13 10 C12.64 10.32, 11.51 11.09, 10 13 M13 10 C11.74 11.23, 10.87 12.34, 10 13 M10 13 C7.58 16.94, 9.27 13.62, 6 13 M10 13 C8.57 12.94, 10.18 15.9, 6 13 M6 13 C4.61 12.47, 3.05 11.42, 2 10 M6 13 C4.66 11.88, 2.92 10.99, 2 10 M2 10 C1.41 6.34, -1.2 9.74, 2 6 M2 10 C-0.19 8.34, 1.21 8.81, 2 6 M2 6 C2.9 4.34, 5.1 3.32, 6 2 M2 6 C3.41 4.63, 4.99 3.37, 6 2 M6 2 C8.95 0.96, 6.6 -1.32, 10 2 M6 2 C7.88 -1.42, 9.23 -0.31, 10 2" stroke="#000000" stroke-width="1" fill="none"></path></g><g stroke-linecap="round" transform="translate(471.60875477365164 389.49998474121094) rotate(0 7.5 7.5)"><path d="M0.31 8.22 C0.31 8.22, 0.31 8.22, 0.31 8.22 M0.31 8.22 C0.31 8.22, 0.31 8.22, 0.31 8.22 M3.33 10.84 C5.5 7.36, 7.23 6.09, 10.54 2.54 M3.33 10.84 C5.31 9.53, 6.24 6.82, 10.54 2.54 M6.35 13.47 C8.51 11.47, 9.95 8.58, 12.91 5.92 M6.35 13.47 C7.95 10.7, 10.35 9.1, 12.91 5.92" stroke="#be4bdb" stroke-width="0.5" fill="none"></path><path d="M10 2 M10 2 C10.82 2.51, 11.1 4.36, 13 6 M10 2 C10.66 2.98, 11.61 4.32, 13 6 M13 6 C13.11 6.55, 16.45 7.4, 13 10 M13 6 C16.57 5.9, 13.24 6.17, 13 10 M13 10 C11.61 10.89, 10.68 12.43, 10 13 M13 10 C12.04 11.15, 10.94 12.08, 10 13 M10 13 C9.94 16.27, 6.62 15.5, 6 13 M10 13 C5.94 17.18, 8.9 15.6, 6 13 M6 13 C5.33 11.81, 4.14 11.66, 2 10 M6 13 C4.91 12.07, 4.08 11.62, 2 10 M2 10 C-1.66 6.8, 1.74 7.83, 2 6 M2 10 C0.34 9.21, 0.81 8.97, 2 6 M2 6 C2.59 5.48, 3.82 4.52, 6 2 M2 6 C3.31 4.93, 4.73 3.53, 6 2 M6 2 C8.96 -1.4, 6.68 -0.11, 10 2 M6 2 C6.58 1.23, 7.69 1.91, 10 2" stroke="#000000" stroke-width="1" fill="none"></path></g><g stroke-linecap="round"><g transform="translate(398.7754417853704 608.9999847412109) rotate(0 15.645775490626704 0.18181313132862442)"><path d="M-0.83 -0.89 C4.58 -0.77, 26.91 0.97, 32.12 1.08 M0.94 1.26 C6.32 1, 27.03 -0.58, 31.76 -0.65" stroke="#000000" stroke-width="1" fill="none"></path></g><g transform="translate(398.7754417853704 608.9999847412109) rotate(0 15.645775490626704 0.18181313132862442)"><path d="M32.95 1.06 L17.9 7.16 L17.5 -7.3 L32.5 -1.08" stroke="none" stroke-width="0" fill="#000000" fill-rule="evenodd"></path><path d="M30.65 0.75 C29.14 0.42, 23.96 2.7, 18.29 7.24 M31.14 -0.64 C29.36 1.18, 25.6 2.59, 17.9 6.85 M18.82 7.23 C17.92 2.47, 17.82 0.18, 17.38 -7.4 M19.11 5.76 C18.02 4.26, 18.68 0.39, 18.31 -6.61 M19.02 -6.41 C21.93 -4.18, 28.4 -2.77, 30.42 -1.22 M17.57 -6.06 C22.22 -5.06, 26.58 -2.59, 31.25 0.09 M31.76 -0.65 C31.76 -0.65, 31.76 -0.65, 31.76 -0.65 M31.76 -0.65 C31.76 -0.65, 31.76 -0.65, 31.76 -0.65" stroke="#000000" stroke-width="1" fill="none"></path></g></g><mask></mask><g stroke-linecap="round"><g transform="translate(124.44220509103445 204.3333282470703) rotate(0 -56.62977379366271 -56.91430162810924)"><path d="M1.18 -0.74 C-17.74 -11.18, -103.75 -43.61, -113.35 -62.71 C-122.95 -81.8, -66.12 -106.85, -56.42 -115.32 M0.34 1.49 C-18.2 -8.81, -101.96 -42.22, -111 -61.54 C-120.05 -80.87, -63.33 -105.47, -53.93 -114.47" stroke="#000000" stroke-width="1" fill="none"></path></g><g transform="translate(124.44220509103445 204.3333282470703) rotate(0 -56.62977379366271 -56.91430162810924)"><path d="M-73.27 -91.7 C-67.49 -99.58, -62.09 -104.99, -52.39 -113.54 M-71.55 -91.48 C-67.53 -96.33, -61.77 -103.04, -53.77 -113.58" stroke="#000000" stroke-width="1" fill="none"></path></g><g transform="translate(124.44220509103445 204.3333282470703) rotate(0 -56.62977379366271 -56.91430162810924)"><path d="M-84.41 -108.93 C-75.12 -111.49, -66.2 -111.45, -52.39 -113.54 M-82.69 -108.72 C-75.6 -108.97, -66.91 -111.14, -53.77 -113.58" stroke="#000000" stroke-width="1" fill="none"></path></g></g><mask></mask><g stroke-linecap="round" transform="translate(121.7755180793157 193.6666717529297) rotate(0 5.833343505859375 8.5)"><path d="M5.53 0.83 C5.53 0.83, 5.53 0.83, 5.53 0.83 M5.53 0.83 C5.53 0.83, 5.53 0.83, 5.53 0.83 M1.98 11 C2.86 8.08, 5.53 6.76, 8.54 3.45 M1.98 11 C4.41 8.73, 6.97 5.95, 8.54 3.45 M5 13.62 C6.93 11.11, 9.35 9.17, 10.91 6.83 M5 13.62 C6.28 12.1, 8.29 10.1, 10.91 6.83" stroke="#12b886" stroke-width="0.5" fill="none"></path><path d="M7.5 2.25 M7.5 2.25 C8.6 3.47, 8.85 4.48, 10.17 6.75 M7.5 2.25 C8.57 3.82, 9.38 5.67, 10.17 6.75 M10.17 6.75 C9.73 10.14, 11.51 8.91, 10.17 11.25 M10.17 6.75 C12.32 10.02, 12.54 6.89, 10.17 11.25 M10.17 11.25 C9.79 11.77, 8.89 12.83, 7.5 14.75 M10.17 11.25 C9.36 12.46, 8.71 13.54, 7.5 14.75 M7.5 14.75 C7.12 18.95, 6.27 18.92, 4.5 14.75 M7.5 14.75 C5.16 17.97, 7.07 15.95, 4.5 14.75 M4.5 14.75 C3.82 13.69, 2.72 12.65, 1.5 11.25 M4.5 14.75 C3.8 13.76, 3.22 12.98, 1.5 11.25 M1.5 11.25 C-1.81 7.5, 0.7 9.27, 1.5 6.75 M1.5 11.25 C-0.01 9.67, 1.08 8.15, 1.5 6.75 M1.5 6.75 C2.06 5.34, 2.71 4.17, 4.5 2.25 M1.5 6.75 C2.61 5.12, 3.78 3.33, 4.5 2.25 M4.5 2.25 C6.61 1.43, 6.24 0.13, 7.5 2.25 M4.5 2.25 C7.72 -1.3, 7.36 0.12, 7.5 2.25" stroke="#000000" stroke-width="1" fill="none"></path></g><g stroke-linecap="round" transform="translate(69.94215931466726 16.999984741210938) rotate(0 212.1667022705078 35.333343505859375)"><path d="M0 0 C0 0, 0 0, 0 0 M0 0 C0 0, 0 0, 0 0 M0.46 6 C1.69 3.73, 3.38 1.52, 5.72 0.69 M-0.47 6.62 C1.02 5.02, 2.28 3.16, 4.73 0.68 M1.57 10.75 C4.08 6.98, 8.42 1.72, 12.02 -0.67 M-0.52 11.31 C2.34 8.48, 5.37 5.86, 10.69 -0.32 M-0.36 17.49 C1.97 12.59, 8.32 12.08, 14.74 0.57 M0.37 18.69 C4.35 12.54, 8.58 8.26, 16.04 -0.01 M-1.63 25.77 C5.81 20.11, 11.73 12.51, 19.33 0.72 M-0.52 24.76 C4.74 18.3, 9.48 13.89, 21.47 0.68 M-1.37 30.09 C7.96 22.4, 16.7 14.4, 26.3 -0.35 M0.65 30.1 C9.01 20.61, 15.8 11.41, 26.59 0.72 M-1.17 38.2 C14.63 20.79, 25.28 8.45, 30.25 0.63 M-0.31 36.11 C9.11 25.25, 18.99 14.11, 31.96 -1.05 M-0.34 41.62 C8.09 30.7, 19.11 22.65, 35.44 -1.21 M-0.52 42.29 C10.22 32.72, 18.8 21.39, 36.15 0.34 M-1.33 48.44 C17.59 29.82, 31.28 11.12, 43.46 -0.39 M0.33 48.74 C11.19 35.86, 22.95 23.67, 42.24 -0.88 M1.2 54.65 C10.31 41.4, 24.46 29.46, 48.43 -0.46 M-0.16 54.07 C17.68 34.06, 36.75 13.06, 46.92 1.05 M-0.36 60.67 C13.13 48.39, 24.83 31.76, 52.66 0.51 M-0.08 61.66 C17.96 39.32, 37.49 18.2, 52.95 0.59 M0.41 66.68 C14.35 50.14, 26.02 35.31, 57.88 -1.43 M0.67 67.63 C12.04 53.06, 25.05 38.37, 58.23 -0.81 M-0.22 71.93 C16.92 55.06, 33.13 37.45, 64.89 -1.65 M2.02 71.77 C18.82 51.29, 36.73 29.49, 64.31 0.43 M8.33 73.54 C23.4 50.34, 40.98 29.44, 68.76 1.73 M7 71.05 C25.39 49.2, 45.21 28.2, 69.45 0.3 M12.07 72.88 C30.85 51.91, 48.45 31.24, 74.53 -1.7 M12.8 71.6 C28.43 53.95, 42.24 36.91, 75.12 0.38 M16.18 70.06 C34.54 49.55, 56.01 29.06, 80.37 2.02 M17.27 71.9 C30.7 57.52, 42.25 42.4, 79.05 0.08 M22.73 72.97 C39.04 50.44, 58.83 31.37, 85.31 1.7 M22.5 71.48 C39.58 51.9, 57.64 29.88, 85.75 -0.16 M27.88 71.95 C43.55 50.88, 60.24 34.2, 88.36 1.6 M26.87 72.19 C46.28 51.45, 63.69 30.19, 89.56 -0.61 M31.55 72.24 C53.31 46.26, 72.73 26.35, 96.29 0.01 M32.58 72.35 C53.05 49.69, 71.48 27.09, 95.15 -1.1 M38.63 72.6 C59.11 45.73, 84.73 18.29, 98.73 1.79 M37.68 72.06 C57.4 48.74, 77.3 25.95, 100.6 -0.73 M43.99 70.61 C61.91 51.57, 83.39 26.21, 107.89 0.9 M42.95 72.07 C63.05 47.08, 82.71 24.33, 105.86 -0.69 M48.96 73.5 C65.75 51.58, 86.72 31.14, 109.79 1.04 M49.18 71.32 C69.32 47.21, 90.93 23.49, 111.86 -0.05 M55.81 70.93 C78.79 44.38, 99.73 19.44, 115.22 -1.1 M53.54 71.39 C76.9 46.85, 99.14 22.59, 116.33 0.25 M58.75 70.33 C81.08 46.52, 103.42 18.58, 122.25 0.99 M59.41 72.46 C79.38 48.32, 100 25.09, 122.13 -0.19 M63.16 73.45 C80.12 57.99, 93.84 39.91, 128.68 -1.53 M65.42 71.54 C85.75 47.12, 106.03 23.21, 126.56 0.31 M69.24 70.92 C82.08 55.55, 97.28 41.97, 133.11 0.42 M70 71.65 C92.76 45.17, 115.44 20.37, 132.25 0.41 M75.21 70.83 C87.69 57.34, 102.34 41.12, 136.06 0.46 M74.38 72.12 C89.97 54, 105.56 37.77, 137.16 1.01 M80.99 73.26 C98.16 53.91, 110.5 38.02, 141.74 1.26 M81.14 71.71 C97.66 52.86, 114.21 34.14, 144.15 -0.53 M87.42 70.89 C105.03 52.55, 119.48 33, 147.16 1.15 M85.27 72.93 C106.5 48.26, 127.96 22, 148.98 0.8 M91.91 71.49 C116.84 44.46, 137.73 13.32, 151.86 -1.38 M90.63 71.15 C113.32 46.93, 134.9 20.64, 153.84 -0.1 M95.65 70.58 C119.74 46.72, 141.98 20.53, 159.1 -1.05 M97.05 72.93 C118.54 47.69, 138.92 22.95, 159.42 0.79 M103.27 69.9 C114.44 56.54, 126.97 40.1, 165.52 -1.27 M102.82 71.15 C118.82 52.61, 136.03 31.68, 164.41 0.78 M106.07 70.04 C122.88 55.27, 138.1 38.18, 170.36 0.45 M107.74 71.27 C120.51 54.71, 136.61 38.07, 169.51 -0.25 M113.66 72.95 C135.65 47.17, 156.66 21.79, 173.12 1.01 M113.65 70.54 C136.73 44.25, 158.67 18.85, 175.02 0.34 M117.2 70.55 C134.14 53.11, 152.53 34.92, 178.77 -1.63 M117.45 72.25 C135.84 52.96, 151.23 32.91, 180.81 1.16 M125.03 71.25 C140.97 54.73, 155.71 35.69, 187.4 0.02 M123.64 70.86 C143.18 47.59, 165.52 23.02, 185.91 -0.99 M129.91 72.54 C143.1 57.63, 155.08 40.06, 191.47 1.62 M129.35 72.34 C152.03 43.93, 174.95 17.72, 190.48 0.13 M132.66 71.56 C153.96 52.81, 169.69 28.22, 197.44 -0.51 M134.87 71.29 C154.74 47.36, 176.32 21.04, 195.4 0.38 M137.41 73.62 C152.98 54.28, 168.44 36.36, 202.99 1.23 M138.69 71.21 C160.96 46.51, 180.39 23.69, 202.26 0.48 M143.2 70.8 C159.38 56.14, 173.45 36.39, 206.68 -1.73 M144.02 71.69 C166.77 47.02, 186.63 23.67, 206.9 0.21 M151.25 70.53 C171.55 43.85, 196.05 15.05, 213.17 0.42 M149.82 72.67 C164 55.96, 176.96 40.17, 211.45 -0.34 M156.61 70.06 C179.82 43.09, 204.34 15.43, 218.88 0.42 M155.35 71.6 C173.54 50.17, 190.57 29.51, 217.87 -0.58 M159.34 73.17 C172.6 56.77, 188.77 39.76, 221.21 0.54 M161.16 71.73 C179.5 50.45, 200.09 26.38, 221.96 -0.17 M163.55 73.33 C178.37 56.32, 191.96 40.54, 228.17 1.1 M165.02 71.99 C178.67 57.66, 191.21 43.11, 228.88 -0.86 M171.91 70.61 C193.28 47.03, 211.77 20.81, 231.64 -0.9 M170.19 71.54 C186.72 52.79, 203.03 35.55, 233.24 0.8 M174.02 70.48 C193.4 51.99, 214.68 28.57, 236.34 1.44 M176.75 71.21 C193.71 50.24, 211.17 30.85, 237.9 0.38 M179.54 73.08 C202.23 46.78, 225.76 20.4, 244.35 -0.22 M182.48 72.45 C198.54 52.47, 214.64 33.93, 243.35 -0.94 M187.35 71.82 C202.3 52.4, 217.89 35.74, 249.52 -0.6 M186.87 72.58 C209.11 46.08, 231.3 19.18, 247.96 0.09 M191.18 69.94 C210.06 48.24, 230.91 27, 252.56 -1.58 M192.68 70.97 C211.09 52.44, 228.92 29.95, 253.91 0.76 M196.89 71.05 C210.23 55.33, 226.84 36.96, 260.2 0.42 M197.94 72.32 C215.78 49.85, 234.05 29.32, 260.18 0.64 M204.09 71.72 C218.32 55.36, 228.76 38.82, 264.85 0.98 M203.52 70.79 C220.76 50.88, 240.65 28.56, 265.12 0.75 M207.35 72.04 C226.15 48.54, 244.2 27.41, 271.86 0.29 M207.11 71.32 C228.4 48.8, 248.17 25.11, 269.44 -0.17 M213.89 72.13 C232.93 47.75, 254.24 22.22, 275.13 1.62 M212.81 71.76 C236.95 43.74, 260.49 16.56, 274.77 -0.47 M216.76 70.79 C239.34 51.51, 255.76 25.93, 280.35 -0.01 M219.1 72.15 C241.35 45.96, 262.88 20.51, 280.68 0.62 M224.54 69.99 C238.48 54.24, 257.96 33.87, 284.65 0.63 M224.42 70.9 C238.67 54.36, 252.28 36.13, 287.21 0.26 M230.5 73.48 C245.79 51.77, 263.98 31.5, 291.83 -0.36 M229.19 72.04 C244.85 52.07, 260.65 34.06, 291.92 0.15 M234.33 71.31 C251.75 52.42, 272.7 30.99, 296.02 -1.53 M235.32 71.41 C252.23 52.09, 269.41 32.48, 296.39 -0.2 M239.3 70.44 C263.05 43.63, 288.57 17.17, 300.85 0.53 M240.27 71.91 C262.68 46.02, 286.18 19.44, 301.27 0.73 M245.93 71.24 C259.23 54.5, 274.39 36.18, 307.18 1.74 M244.55 71.68 C265.89 46.29, 288.4 21.16, 306.81 -0.33 M249.23 70.15 C271.41 47.23, 292.57 20.92, 312.25 -0.9 M249.79 71.34 C274.49 43.41, 300.06 14.91, 311.9 0.83 M256.33 72.11 C272.05 54.11, 284.68 37.92, 317.41 1.22 M256.23 72.23 C281.56 43.06, 306.18 14.53, 318.58 -0.95 M259.7 73.26 C276.58 53.89, 288.6 36.88, 323.26 0.93 M260.78 71.58 C280.47 48.12, 301.62 26.38, 323.08 0.1 M266.85 73.38 C285.15 49.63, 303.4 27.49, 329.36 -2.19 M266.54 70.78 C290.51 42.74, 315.64 14.49, 328.36 -0.18 M273.47 70.55 C291.59 50.73, 310.55 27.02, 333.43 -1.22 M270.85 72.56 C288.24 52.85, 305.48 33.06, 333.14 0.38 M276.52 70.42 C298.19 49.72, 319.43 23.39, 339 0.61 M276.12 71.98 C290.08 55.1, 304.23 40.62, 340.41 -0.5 M282.64 73 C303.57 45.95, 324.77 20.74, 342.65 -1.44 M281.19 71.88 C298.46 54.01, 314.56 33.92, 344.49 0.66 M286.68 73.52 C304.02 55.06, 316.36 39.19, 348.99 1.6 M287.61 71.37 C310.62 45.08, 335.77 16.56, 348.89 1.06 M294.66 69.7 C314.98 48.51, 334.86 24.25, 353.16 1.32 M293.56 71.8 C309.62 50.95, 327.06 31.69, 354.63 0.1 M299.03 70.36 C315.33 50.87, 332.47 29.63, 361.3 -1.33 M296.81 72.94 C318.78 50.34, 337.31 27.87, 359.53 0.87 M302.31 69.92 C326.37 46.7, 346.22 22.38, 367.56 1.29 M303.31 72.26 C324.86 45.86, 347.51 21.66, 365.13 -0.95 M308.29 73.04 C319.91 57.39, 333.24 42.53, 371.3 2.11 M308.2 71.09 C323.97 54.92, 340.44 37, 370.66 0.23 M313.73 73.09 C332.66 48, 351.67 27.94, 374.77 -0.16 M314.36 71.88 C332.1 50.96, 350.22 30.31, 376.63 0.02 M319.52 72.8 C338.75 48.3, 359.54 22.77, 380.32 1.63 M319.39 72.4 C339.44 48.22, 359.14 24.08, 380.83 -0.64 M326.39 70.78 C339.14 56.2, 350.12 41.3, 388.06 -0.49 M324.2 70.95 C347.41 45.65, 370.25 18.32, 387.87 0.68 M330.1 70.07 C348.97 48.06, 369.37 23, 393.07 1.09 M330.03 72.6 C350.62 47.62, 371.18 23.12, 391.19 1.16 M337.11 72.72 C351.27 53.62, 366.57 33.49, 399.06 -2.02 M334.93 72.41 C350.15 55.02, 366.04 37.94, 398.64 -1.1 M339.78 72.39 C361.93 45.16, 384.51 18.13, 403.58 0.5 M340.87 71.63 C362.71 46.1, 385.38 19.55, 402.46 0.2 M344.06 72.82 C369.69 43.57, 396.02 16.44, 407.71 -1.9 M346.2 70.9 C360.86 56.52, 374.26 40.42, 408.84 -0.3 M352.65 72.49 C375.5 46.2, 395.14 17.48, 413.24 2.04 M350.72 72.56 C370.14 48.77, 389.88 26.49, 413.93 -0.3 M356.74 71.11 C376.83 48.8, 396.27 26.34, 420.33 -2.13 M356.23 71.73 C378.3 45.85, 402.81 18.47, 419.41 0.29 M363.14 70.24 C382 50.23, 398.48 29.73, 424.76 0.04 M361.5 72.66 C375.5 54.72, 389.81 39.14, 424.48 0.6 M366 71.8 C385.92 51.09, 403.8 29.84, 424.94 3.45 M366.84 71.85 C381.29 53.86, 397.28 37.41, 426.79 2.04 M374.01 70.67 C388.24 55.15, 403.04 36.47, 429.02 7.28 M373.16 72.36 C389.77 51.46, 407.37 30.73, 426.35 8.75 M378.05 73.25 C396.04 50.72, 412.47 30.62, 425.28 15.22 M378.43 70.92 C397.01 51.99, 415.21 30.8, 427.83 15.55 M382.39 69.98 C397.97 55.73, 409.13 38.18, 429.34 19.87 M382.77 72.27 C398.17 53.1, 415.18 33.05, 426.5 20.9 M387.75 70.73 C397.86 62.4, 406.67 49.38, 426.57 27.56 M388.31 73.01 C399.61 58.07, 410.85 44.36, 426.6 27.46 M393.74 73.51 C403.7 60.34, 416.59 46.49, 427.13 33.6 M393.47 72.16 C405.4 58.47, 416.7 44.89, 427.17 33.95 M399.32 71.4 C406.84 59.63, 417.14 52.3, 428.47 39.12 M398.33 72.59 C405.22 65, 409.99 58.78, 426.39 39.67 M403.85 69.75 C409.62 62.21, 417.32 53.07, 427.78 45.91 M403.46 71.99 C411.16 62.18, 419.55 53.03, 426.86 45.99 M408.3 72.85 C416.47 67.12, 418.56 58.99, 427.01 49.68 M409.96 72.08 C414.33 65.44, 420.15 59.78, 426.53 51.24 M412.98 72.34 C416.5 66.14, 419.56 65.35, 426.14 58.6 M415.01 70.91 C417.33 68.22, 422.04 64.15, 426.7 57.99 M418.93 70.94 C422.62 68.51, 424.18 65.69, 427.46 63.27 M419.82 71.91 C422.31 69.73, 424.48 66.51, 426.86 63.95" stroke="#15aabf" stroke-width="0.5" fill="none"></path><path d="M-0.26 -0.41 C91.81 -0.91, 185.24 -0.82, 424.87 -0.05 M0.3 -0.04 C125.41 2.31, 251.1 2.36, 423.85 -0.39 M423.1 -0.49 C424.27 27.92, 423.24 55.48, 424.55 72.01 M425.31 0.14 C425.82 26.81, 425.28 54.82, 423.88 71.19 M424.7 71.46 C284.82 72.02, 142.74 72.24, 0.1 70.18 M423.94 70.85 C261.47 68.65, 98.61 68.9, -0.19 70.37 M-1.05 69.85 C-1.97 46.01, 0.54 20.83, 0.62 -0.12 M0.72 70.78 C0.64 45.26, 0.01 18.94, 0.05 0.97" stroke="#000000" stroke-width="1" fill="none"></path></g><g transform="translate(131.1087700324407 105.50001525878906) rotate(0 45.5 10)"><text x="0" y="14" font-family="Virgil, Segoe UI Emoji" font-size="16px" fill="#000000" text-anchor="start" style="white-space: pre;" direction="ltr">prev_frame</text></g><g stroke-linecap="round" transform="translate(116.77557911447195 102.49995422363281) rotate(0 5.833343505859375 8.5)"><path d="M5.53 0.83 C5.53 0.83, 5.53 0.83, 5.53 0.83 M5.53 0.83 C5.53 0.83, 5.53 0.83, 5.53 0.83 M1.98 11 C4.67 8.7, 4.95 6.58, 8.54 3.45 M1.98 11 C3.88 9.35, 4.99 7.78, 8.54 3.45 M5 13.62 C6.38 12.16, 8.24 10.11, 10.91 6.83 M5 13.62 C6.9 11.26, 9.28 8.34, 10.91 6.83" stroke="#12b886" stroke-width="0.5" fill="none"></path><path d="M7.5 2.25 M7.5 2.25 C8.21 3.36, 9.3 4.92, 10.17 6.75 M7.5 2.25 C8.08 3.24, 8.86 4.34, 10.17 6.75 M10.17 6.75 C9.79 8.85, 10.04 10.32, 10.17 11.25 M10.17 6.75 C13.92 9.99, 9.86 11.07, 10.17 11.25 M10.17 11.25 C9.22 12.05, 9.23 13.17, 7.5 14.75 M10.17 11.25 C9.34 12.26, 8.71 13.13, 7.5 14.75 M7.5 14.75 C4.94 16.31, 4.7 18.59, 4.5 14.75 M7.5 14.75 C8.14 16.26, 3.83 19.06, 4.5 14.75 M4.5 14.75 C3.85 13.71, 3.59 13.02, 1.5 11.25 M4.5 14.75 C3.62 13.71, 3.02 12.88, 1.5 11.25 M1.5 11.25 C0.69 7.62, 0.16 8.28, 1.5 6.75 M1.5 11.25 C-1.65 6.77, -1.23 8.73, 1.5 6.75 M1.5 6.75 C2.59 6.14, 2.82 4.57, 4.5 2.25 M1.5 6.75 C2.44 5.56, 3.2 4.01, 4.5 2.25 M4.5 2.25 C6.05 -0.11, 6.84 -0.67, 7.5 2.25 M4.5 2.25 C4.44 -1.56, 7.11 -2.18, 7.5 2.25" stroke="#000000" stroke-width="1" fill="none"></path></g><g stroke-linecap="round"><g transform="translate(123.10886158517508 110.33332824707031) rotate(0 -40.438134377168524 -47.67213378051295)"><path d="M0.63 0.71 C-12.52 -8.04, -70.32 -37.49, -79.39 -53.3 C-88.45 -69.11, -57.86 -87.27, -53.74 -94.16 M-0.49 0.04 C-13.68 -9.01, -70.83 -39.21, -79.84 -55.23 C-88.85 -71.24, -58.7 -89.71, -54.54 -96.06" stroke="#000000" stroke-width="1" fill="none"></path></g><g transform="translate(123.10886158517508 110.33332824707031) rotate(0 -40.438134377168524 -47.67213378051295)"><path d="M-64.26 -72.44 C-61.86 -79.91, -58.24 -87.14, -53.93 -94.62 M-66.01 -73.42 C-62.01 -80, -59.16 -87.55, -54.46 -96.84" stroke="#000000" stroke-width="1" fill="none"></path></g><g transform="translate(123.10886158517508 110.33332824707031) rotate(0 -40.438134377168524 -47.67213378051295)"><path d="M-75.88 -84.6 C-70.54 -88.98, -63.91 -93.05, -53.93 -94.62 M-77.63 -85.59 C-70 -88.46, -63.52 -92.22, -54.46 -96.84" stroke="#000000" stroke-width="1" fill="none"></path></g></g><mask></mask><g transform="translate(510.44220509103445 10) rotate(0 54.5 10)"><text x="0" y="14" font-family="Virgil, Segoe UI Emoji" font-size="16px" fill="#000000" text-anchor="start" style="white-space: pre;" direction="ltr">Stack bottom</text></g><g transform="translate(514.7754570441595 153.00005340576172) rotate(0 55 10)"><text x="0" y="14" font-family="Virgil, Segoe UI Emoji" font-size="16px" fill="#000000" text-anchor="start" style="white-space: pre;" direction="ltr">current frame</text></g><g stroke-linecap="round" transform="translate(67.10870899728445 643.0000610351562) rotate(0 214.8333740234375 29.5)"><path d="M0.57 -0.75 C154.98 -1.14, 309.95 -0.85, 429.95 -0.5 M0.28 0.33 C147.49 1.83, 295.24 1.8, 430.1 -0.17 M429.66 1.58 C429.5 16.27, 428.12 35.33, 428.06 57.37 M430.35 0.15 C429.34 14.5, 428.69 28.03, 430.38 59.41 M429.73 58.25 C277.58 60.15, 125.96 61.32, 0.15 59.84 M430.03 59.32 C317.46 59.26, 204.82 58.97, -0.46 58.5 M0.98 60.9 C-1.92 40.32, 0.22 25.2, 0.17 0.62 M-0.35 58.96 C0.45 38.72, -0.41 18.23, 0.78 -0.89" stroke="#000000" stroke-width="1" fill="none"></path></g><g transform="translate(264.4420219855657 663.666748046875) rotate(0 28.5 10)"><text x="0" y="14" font-family="Virgil, Segoe UI Emoji" font-size="16px" fill="#000000" text-anchor="start" style="white-space: pre;" direction="ltr">Unused</text></g><g transform="translate(507.4421440558782 695.6668090820312) rotate(0 61 10)"><text x="0" y="14" font-family="Virgil, Segoe UI Emoji" font-size="16px" fill="#000000" text-anchor="start" style="white-space: pre;" direction="ltr">stack boundary</text></g><g transform="translate(513.108586926972 625.6669311523438) rotate(0 40 10)"><text x="0" y="14" font-family="Virgil, Segoe UI Emoji" font-size="16px" fill="#000000" text-anchor="start" style="white-space: pre;" direction="ltr">stack top</text></g><g stroke-linecap="round" transform="translate(109.67070050512564 508.9945761193894) rotate(0 179.3333511352539 12.999984741210938)"><path d="M0.34 0.17 C83.01 0.94, 164.47 -0.75, 358.75 -1.14 M-0.42 -0.1 C96.49 1.08, 193.49 0.95, 359.25 -0.33 M359.83 1.76 C359.93 11.2, 357.9 19.33, 356.68 25.41 M359.09 0.7 C359.45 6.47, 357.84 11.7, 357.76 25.27 M359.24 26.21 C245.11 25.02, 131.3 24.24, 0.81 27.12 M358.15 25.62 C264.58 23.82, 171.21 25.02, -0.38 26.24 M-0.78 24.25 C2.11 21.67, 0.39 15.26, 1.69 -0.9 M-0.63 25.03 C-0.06 19.7, 0.85 14.64, 0.18 -0.91" stroke="#000000" stroke-width="1" fill="none"></path></g><g transform="translate(133.44208302072195 513.0001068115234) rotate(0 48 10)"><text x="0" y="14" font-family="Virgil, Segoe UI Emoji" font-size="16px" fill="#000000" text-anchor="start" style="white-space: pre;" direction="ltr">Wasm locals</text></g></svg>